<?xml version="1.0" standalone="no"?>
<!DOCTYPE svg PUBLIC "-//W3C//DTD SVG 1.1//EN" "http://www.w3.org/Graphics/SVG/1.1/DTD/svg11.dtd" >
<svg xmlns="http://www.w3.org/2000/svg">
<metadata>Generated by IcoMoon</metadata>
<defs>
<font id="icomoon" horiz-adv-x="1024">
<font-face units-per-em="1024" ascent="960" descent="-64" />
<missing-glyph horiz-adv-x="1024" />
<glyph unicode="&#x20;" horiz-adv-x="512" d="" />
<glyph unicode="&#xe900;" glyph-name="arrow-down" horiz-adv-x="611" d="M599.322 268.493c-6.949 6.947-16.547 11.243-27.149 11.243s-20.2-4.296-27.149-11.243l-201.344-201.318v854.426c0 21.208-17.192 38.4-38.4 38.4s-38.4-17.192-38.4-38.4v0-854.502l-201.344 201.395c-6.898 6.669-16.308 10.779-26.677 10.779-21.208 0-38.4-17.192-38.4-38.4 0-10.369 4.11-19.779 10.79-26.688l-0.010 0.011 266.906-266.88c3.497-3.491 7.664-6.311 12.291-8.251l0.253-0.094 0.589-0.179c4.144-1.717 8.957-2.714 14.003-2.714s9.859 0.997 14.253 2.805l-0.249-0.091 0.589 0.179c4.89 2.032 9.066 4.853 12.571 8.347l266.879 266.879c6.947 6.949 11.243 16.547 11.243 27.149s-4.296 20.2-11.243 27.149v0z" />
<glyph unicode="&#xe901;" glyph-name="arrow-left" d="M985.6 486.426h-854.502l201.344 201.318c6.669 6.898 10.779 16.308 10.779 26.677 0 21.208-17.192 38.4-38.4 38.4-10.369 0-19.779-4.11-26.688-10.79l0.011 0.010-267.008-266.88c-1.724-1.731-3.29-3.623-4.674-5.649l-0.088-0.137c-0.384-0.589-0.64-1.254-0.998-1.843-0.872-1.343-1.727-2.906-2.466-4.531l-0.094-0.23c-0.333-0.768-0.486-1.613-0.768-2.406-0.489-1.262-0.981-2.852-1.376-4.48l-0.058-0.281c-0.489-2.282-0.769-4.903-0.769-7.59s0.28-5.309 0.812-7.837l-0.043 0.247c0.459-1.897 0.951-3.469 1.529-4.999l-0.096 0.289c0.282-0.819 0.435-1.664 0.768-2.56 0.858-1.84 1.712-3.376 2.657-4.846l-0.097 0.162c0.384-0.614 0.64-1.306 1.050-1.92 1.471-2.163 3.037-4.054 4.763-5.787l266.879-266.905c6.898-6.669 16.308-10.779 26.677-10.779 21.208 0 38.4 17.192 38.4 38.4 0 10.369-4.11 19.779-10.79 26.688l0.010-0.011-201.344 201.37h854.502c21.208 0 38.4 17.192 38.4 38.4s-17.192 38.4-38.4 38.4v0z" />
<glyph unicode="&#xe902;" glyph-name="arrow-right" d="M1018.47 428.442c0.886 1.364 1.742 2.944 2.473 4.592l0.087 0.221c0.333 0.768 0.486 1.587 0.742 2.355 0.506 1.289 1.007 2.896 1.404 4.543l0.055 0.27c0.485 2.282 0.762 4.904 0.762 7.59s-0.278 5.308-0.806 7.838l0.043-0.248c-0.452 1.927-0.953 3.543-1.551 5.112l0.091-0.273c-0.282 0.768-0.41 1.587-0.742 2.33-0.811 1.886-1.667 3.484-2.641 4.998l0.081-0.134c-0.333 0.563-0.563 1.178-0.947 1.741-1.452 2.168-3.011 4.060-4.736 5.786l-266.931 266.88c-6.898 6.669-16.308 10.779-26.677 10.779-21.208 0-38.4-17.192-38.4-38.4 0-10.369 4.11-19.779 10.79-26.688l-0.010 0.011 201.344-201.318h-854.502c-21.208 0-38.4-17.192-38.4-38.4s17.192-38.4 38.4-38.4v0h854.502l-201.344-201.37c-6.669-6.898-10.779-16.308-10.779-26.677 0-21.208 17.192-38.4 38.4-38.4 10.369 0 19.779 4.11 26.688 10.79l-0.011-0.010 266.906 266.906c1.725 1.726 3.284 3.618 4.65 5.65l0.086 0.135c0.384 0.563 0.64 1.229 0.973 1.792z" />
<glyph unicode="&#xe903;" glyph-name="arrow-up" horiz-adv-x="611" d="M599.322 681.83l-266.88 266.906c-3.503 3.493-7.679 6.314-12.316 8.252l-0.254 0.094-0.589 0.179c-4.142 1.732-8.955 2.739-14.003 2.739s-9.861-1.006-14.249-2.829l0.246 0.091-0.589-0.179c-4.88-2.035-9.047-4.855-12.545-8.346l-266.905-266.905c-6.669-6.898-10.779-16.308-10.779-26.677 0-21.208 17.192-38.4 38.4-38.4 10.369 0 19.779 4.11 26.688 10.79l-0.011-0.010 201.344 201.37v-854.502c0-21.208 17.192-38.4 38.4-38.4s38.4 17.192 38.4 38.4v0 854.502l201.344-201.37c6.898-6.669 16.308-10.779 26.677-10.779 21.208 0 38.4 17.192 38.4 38.4 0 10.369-4.11 19.779-10.79 26.688l0.010-0.011z" />
<glyph unicode="&#xe904;" glyph-name="art" d="M927.667 622.029c2.472 3.060 4.629 6.538 6.327 10.269l0.124 0.304c0.179 0.486 0.538 0.845 0.691 1.331l87.654 279.040c0.971 2.983 1.531 6.416 1.531 9.979 0 18.38-14.9 33.28-33.28 33.28-3.564 0-6.996-0.56-10.215-1.597l0.236 0.066-279.040-87.654c-0.435-0.154-0.742-0.486-1.178-0.64-2.175-0.96-4.033-2.004-5.777-3.201l0.119 0.077c-2.14-1.144-3.985-2.392-5.686-3.807l0.054 0.044c-0.333-0.282-0.768-0.384-1.075-0.691l-214.733-214.733-55.526 55.526c2.074 40.678-1.766 128.128-65.818 175.078-36.915 27.085-80.384 23.194-122.214 19.482-51.2-4.454-99.328-8.806-147.814 33.894-7.674 6.812-17.835 10.973-28.969 10.973-21.759 0-39.807-15.894-43.164-36.706l-0.033-0.251c-11.802-75.213-29.67-260.173 58.522-352.333 31.67-32.583 75.914-52.8 124.88-52.8 2.231 0 4.453 0.042 6.664 0.125l-0.319-0.010c4.352 0 8.986 0.538 13.44 0.768l57.037-57.037-244.198-244.25c-11.381-11.351-18.422-27.049-18.422-44.39s7.041-33.039 18.42-44.389l149.684-149.684c11.359-11.354 27.048-18.377 44.378-18.377s33.019 7.023 44.378 18.377l244.249 244.249 238.080-238.080c11.354-11.374 27.051-18.411 44.39-18.411s33.036 7.037 44.389 18.41l114.535 114.535c11.356 11.363 18.379 27.056 18.379 44.39s-7.023 33.028-18.379 44.391l-238.080 238.080 214.707 214.733c0.512 0.486 0.666 1.126 1.050 1.638zM214.605 564.275c-5.277-0.856-11.36-1.346-17.557-1.346-31.383 0-59.836 12.549-80.613 32.904l0.019-0.019c-48.819 51.021-56.115 160.896-45.773 258.406 34.922-18.995 76.476-30.162 120.638-30.162 15.683 0 31.037 1.408 45.942 4.106l-1.562-0.234c37.35 3.328 61.107 4.787 77.005-6.886 39.475-28.954 39.834-95.846 38.554-120.115zM219.904 7.834l-144.333 144.333 87.501 87.526 144.358-144.333zM354.483 142.387l-144.358 144.358 107.008 107.034 144.358-144.358zM900.224 123.187l-109.184-109.184-516.173 516.275 109.21 109.21zM664.704 452.71l-144.358 144.358 191.206 191.181 144.333-144.333zM774.067 820.019l165.862 52.096-52.096-165.837z" />
<glyph unicode="&#xe905;" glyph-name="attachment" horiz-adv-x="935" d="M289.017-64c-159.655 0.14-289.027 129.598-289.027 289.273 0 79.8 32.313 152.053 84.568 204.389l469.667 469.642c37.374 36.835 88.72 59.582 145.378 59.582 114.406 0 207.15-92.744 207.15-207.15 0-56.665-22.752-108.015-59.619-145.415l-390.417-390.417c-24.248-24.876-58.084-40.306-95.524-40.306-73.646 0-133.347 59.702-133.347 133.347 0 37.44 15.43 71.276 40.278 95.496l0.028 0.027 352.734 352.734c5.964 5.705 14.066 9.217 22.989 9.217 18.38 0 33.279-14.9 33.279-33.279 0-8.923-3.512-17.026-9.229-23.002l-352.722-352.722c-12.087-12.087-19.564-28.786-19.564-47.231 0-36.89 29.905-66.794 66.794-66.794 18.445 0 35.143 7.476 47.231 19.564v0l390.441 390.441c25.448 25.445 41.188 60.598 41.188 99.428 0 77.653-62.95 140.603-140.603 140.603-38.823 0-73.972-15.735-99.415-41.175l-469.671-469.646c-38.034-39.88-61.438-94.005-61.438-153.596 0-123.002 99.713-222.714 222.714-222.714 59.591 0 113.716 23.404 153.685 61.522l-0.088-0.084 431.938 431.938c5.964 5.705 14.066 9.217 22.989 9.217 18.38 0 33.279-14.9 33.279-33.279 0-8.923-3.512-17.026-9.229-23.002l-431.952-431.9c-52.050-52.326-124.105-84.709-203.723-84.709-0.269 0-0.538 0-0.806 0.001h0.041z" />
<glyph unicode="&#xe906;" glyph-name="baby" d="M760.448 581.402c0.708 3.497 1.134 7.534 1.177 11.664v73.353c-0.029 35.736-28.983 64.699-64.713 64.742h-3.511c-16.668 39.084-46.5 69.878-83.808 87.374l-1.030 0.434q-1.382 0.538-2.381 0.998l0.435 1.152c4.119 10.181 6.663 21.973 7.011 34.314l0.003 0.143c0 0.922 0 1.818 0 2.739 0 0.014 0 0.031 0 0.047 0 38.379-21.273 71.79-52.672 89.083l-0.525 0.265c-14.342 7.652-31.367 12.146-49.442 12.146-22.676 0-43.699-7.073-60.985-19.134l0.347 0.229c-8.398-5.493-15.362-12.449-20.699-20.571l-0.165-0.267c-11.88-17.085-18.979-38.269-18.979-61.112 0-13.61 2.52-26.631 7.119-38.622l-0.249 0.739c0.139-0.294 0.286-0.667 0.413-1.049l0.022-0.077c-0.666-0.333-1.434-0.666-2.355-1.024-38.35-17.923-68.192-48.718-84.447-86.711l-0.417-1.097h-3.507c-35.734-0.044-64.688-29.007-64.717-64.74v-73.321c0.042-4.164 0.468-8.202 1.246-12.113l-0.069 0.414c-18.893-13.369-31.088-35.118-31.13-59.718v-512.417c0.044-40.442 32.824-73.212 73.264-73.242h412.649c40.422 0.058 73.172 32.818 73.216 73.237v512.414c-0.035 24.603-12.221 46.351-30.877 59.572l-0.227 0.153zM328.934 664.627h366.080v-69.709h-366.080zM439.706 756.966c20.171 6.624 35.91 21.801 43.16 41.128l0.155 0.472c1.852 5.704 2.92 12.267 2.92 19.080 0 10.756-2.662 20.89-7.363 29.779l0.167-0.347c-1.050 3.487-1.655 7.494-1.655 11.642 0 10.012 3.522 19.202 9.395 26.398l-0.060-0.075c6.704 5.187 15.231 8.315 24.488 8.315 6.474 0 12.591-1.53 18.009-4.248l-0.232 0.105c10.588-5.803 17.779-16.644 18.352-29.21l0.003-0.076c0-0.538 0-1.050 0-1.613 0-0.032 0-0.069 0-0.106 0-3.985-0.675-7.813-1.917-11.374l0.074 0.242c-4.524-8.551-7.179-18.691-7.179-29.452 0-6.805 1.062-13.361 3.029-19.513l-0.125 0.453c7.412-19.795 23.148-34.969 42.831-41.462l0.484-0.138c12.836-6.099 23.526-14.845 31.72-25.597l0.152-0.208h-208.179c8.322 10.947 18.975 19.69 31.257 25.583l0.513 0.222zM724.992 9.267c0 0 0 0 0 0 0-3.686-2.974-6.678-6.653-6.707h-412.649c-3.704 0-6.707 3.003-6.707 6.707v0 90.957h61.645c18.38 0 33.28 14.9 33.28 33.28s-14.9 33.28-33.28 33.28v0h-61.645v64.589h61.645c18.38 0 33.28 14.9 33.28 33.28s-14.9 33.28-33.28 33.28v0h-61.645v64.538h61.645c18.38 0 33.28 14.9 33.28 33.28s-14.9 33.28-33.28 33.28v0h-61.645v92.646c0 0 0 0 0 0 0 3.69 2.991 6.682 6.682 6.682 0.009 0 0.018 0 0.027 0h412.645c3.679-0.015 6.656-3 6.656-6.682 0 0 0 0 0 0v0z" />
<glyph unicode="&#xe907;" glyph-name="bag" d="M990.72 758.298h-315.571v87.936c0 18.38-14.9 33.28-33.28 33.28v0h-259.738c-18.38 0-33.28-14.9-33.28-33.28v0-87.936h-315.571c-18.38 0-33.28-14.9-33.28-33.28v0-675.328c0-18.38 14.9-33.28 33.28-33.28v0h957.44c18.38 0 33.28 14.9 33.28 33.28v0 675.328c0 18.38-14.9 33.28-33.28 33.28v0zM415.411 812.954h193.203v-54.656h-193.203zM66.56 691.738h890.88v-160.794c-0.058-47.256-38.351-85.548-85.601-85.606h-262.252v56.96c0 18.38-14.9 33.28-33.28 33.28v0h-128.666c-18.38 0-33.28-14.9-33.28-33.28v0-57.011h-262.272c-47.251 0.058-85.537 38.354-85.581 85.602v160.849zM543.053 469.018v-114.048h-62.106v114.048zM66.56 82.816v322.509c23.913-16.57 53.543-26.47 85.485-26.47 0.034 0 0.067 0 0.101 0h262.267v-57.011c0-18.38 14.9-33.28 33.28-33.28v0h128.666c18.38 0 33.28 14.9 33.28 33.28v0 57.011h262.246c0.024 0 0.053 0 0.082 0 31.955 0 61.598 9.9 86.029 26.8l-0.504-0.33v-322.355z" />
<glyph unicode="&#xe908;" glyph-name="ball" d="M1023.053 423.308c0.435 8.32 0.717 16.589 0.717 24.705 0.012 1.275 0.018 2.783 0.018 4.292 0 280.402-227.31 507.712-507.712 507.712-23.64 0-46.903-1.616-69.684-4.743l2.643 0.297-0.358 1.408-65.486-12.212 0.333-1.331c-181.858-48.72-321.803-190.179-367.547-369.318l-0.77-3.555-1.331 0.307-6.016-34.458-5.453-31.105 1.306-0.282c-2.325-18.258-3.653-39.382-3.653-60.816 0-280.628 227.494-508.121 508.121-508.121 1.329 0 2.657 0.005 3.984 0.015l-0.204-0.001c12.186 0 24.628 0.563 37.198 1.51l0.205-1.024 66.024 8.883-0.282 1.459c204.872 42.644 362.709 203.828 399.844 407.157l0.473 3.119 1.459-0.256 3.84 35.15 3.379 31.13zM957.234 448.013c0-3.866-0.563-8.039-0.666-11.955-1.997 0.461-4.045 0.794-6.042 1.254-6.4 1.536-12.8 3.328-19.098 5.12-8.781 2.381-17.562 4.813-26.189 7.527-6.451 2.022-12.8 4.224-19.2 6.451-8.346 2.893-16.666 5.939-24.858 9.165-6.298 2.56-12.544 5.12-18.765 7.68q-12.084 5.12-23.988 10.855c-6.016 2.867-12.058 5.76-17.92 8.807-7.885 4.045-15.616 8.32-23.322 12.672-5.683 3.226-11.392 6.375-16.973 9.754-7.68 4.711-15.36 9.703-23.041 14.72-5.12 3.43-10.419 6.733-15.36 10.24-8.167 5.709-16.052 11.776-23.911 17.92-4.199 3.251-8.551 6.323-12.672 9.651q-16.845 13.645-32.769 28.289l-3.584 3.354q-15.719 14.669-30.439 30.311c-3.635 3.891-7.040 7.987-10.599 11.93-6.605 7.399-13.236 14.823-19.559 22.503-3.917 4.787-7.68 9.779-11.418 14.695-5.555 7.168-11.085 14.362-16.359 21.786-3.814 5.351-7.424 10.829-11.059 16.308-4.89 7.296-9.703 14.669-14.311 22.196-3.507 5.709-6.861 11.52-10.24 17.357-4.327 7.68-8.551 15.36-12.596 23.041-3.123 6.016-6.17 12.058-9.114 18.176-3.84 7.936-7.475 16-11.008 24.116-2.56 6.17-5.351 12.365-7.834 18.637-3.354 8.423-6.451 16.973-9.472 25.601-2.202 6.221-4.429 12.416-6.451 18.714-0.64 2.048-1.152 4.147-1.792 6.17 0.666 0 1.306 0.23 1.971 0.282 14.516 1.434 29.006 2.278 43.367 2.278 245.887-0.364 445.097-199.691 445.272-445.588v-0.017zM66.536 448.013c0 13.21 0.691 26.599 1.92 39.988v0.819c2.176-0.614 4.403-1.101 6.554-1.715 6.631-1.971 13.133-4.173 19.687-6.323 8.474-2.79 16.948-5.632 25.268-8.755 6.528-2.56 12.98-5.12 19.405-7.68q12.135-4.967 24.039-10.24c6.349-2.893 12.621-5.888 18.868-8.96q11.674-5.811 23.041-12.032c6.016-3.277 12.032-6.579 17.92-10.035 7.68-4.455 15.028-9.114 22.401-13.824 5.632-3.61 11.29-7.168 16.794-10.906 7.475-5.12 14.746-10.471 21.991-15.872 5.12-3.789 10.24-7.475 15.36-11.418 7.68-6.067 15.104-12.468 22.529-18.868 4.199-3.61 8.525-7.066 12.647-10.803 10.24-9.344 20.276-19.047 29.978-29.006 1.869-1.92 3.712-3.84 5.555-5.786q14.413-15.13 27.853-31.13c3.584-4.275 6.912-8.781 10.368-13.133 6.093-7.68 12.16-15.36 17.92-23.041 3.738-5.12 7.245-10.522 10.855-15.796 5.12-7.424 10.24-14.848 14.925-22.503 3.558-5.658 6.887-11.469 10.24-17.255 4.403-7.68 8.781-15.13 12.8-22.887 3.226-6.042 6.272-12.16 9.344-18.33 3.84-7.68 7.68-15.616 11.136-23.578 2.816-6.298 5.53-12.672 8.167-19.072 3.328-8.115 6.451-16.333 9.498-24.628 2.355-6.451 4.659-12.8 6.835-19.456 2.816-8.576 5.376-17.255 7.885-25.985 1.843-6.451 3.738-12.8 5.402-19.456 0.563-2.227 0.973-4.48 1.51-6.707-7.936-0.435-15.872-0.845-23.578-0.845-245.686 0.451-444.726 199.526-445.118 445.183v0.037zM602.204 11.855c-0.87 3.814-2.074 7.527-3.021 11.315-1.894 7.68-3.968 15.181-6.093 22.708-2.56 9.37-5.453 18.637-8.448 27.853-2.432 7.424-4.941 14.772-7.68 22.093-3.277 9.088-6.784 17.92-10.394 26.983-2.918 7.117-5.837 14.234-8.935 21.249-3.942 8.858-8.115 17.562-12.391 26.241-3.328 6.759-6.605 13.517-10.24 20.148-4.634 8.73-9.575 17.28-14.541 25.805-3.635 6.221-7.194 12.519-11.008 18.663-5.479 8.781-11.315 17.28-17.152 25.805-3.763 5.555-7.399 11.187-11.341 16.615-6.759 9.319-13.927 18.304-21.095 27.29-3.43 4.301-6.656 8.755-10.24 12.954-22.322 26.607-45.431 50.608-70.071 72.952l-0.613 0.547c-3.942 3.558-8.115 6.861-12.135 10.24-8.832 7.68-17.69 15.36-26.906 22.529-5.12 3.994-10.419 7.68-15.616 11.597-8.474 6.298-16.948 12.621-25.601 18.56-5.786 3.917-11.725 7.68-17.613 11.315-8.551 5.453-17.127 10.88-25.908 16-6.247 3.635-12.647 7.040-19.021 10.496-8.755 4.762-17.562 9.421-26.548 13.824-6.631 3.251-13.364 6.323-20.122 9.395-9.037 4.096-18.151 8.064-27.367 11.802-6.938 2.816-13.952 5.504-20.993 8.115q-14.106 5.12-28.417 9.856c-7.143 2.33-14.285 4.583-21.505 6.682-3.917 1.126-7.68 2.56-11.648 3.61 40.663 158.762 162.392 281.639 317.394 323.262l3.126 0.715c1.101-3.686 2.56-7.245 3.635-10.906 2.381-7.68 4.915-15.104 7.527-22.58q4.711-13.517 9.933-26.778 4.301-10.906 8.883-21.658c3.789-8.807 7.68-17.46 11.904-26.087 3.277-6.887 6.605-13.773 10.24-20.481 4.429-8.602 9.114-17.024 13.876-25.396 3.686-6.477 7.322-12.98 11.187-19.328 5.12-8.448 10.573-16.692 16.052-24.909 3.942-5.939 7.68-11.93 11.904-17.741 5.991-8.474 12.314-16.64 18.663-24.833 4.045-5.12 7.936-10.547 12.109-15.668 7.296-8.935 15.002-17.536 22.708-26.113 3.584-3.994 6.989-8.167 10.675-12.084 23.032-24.53 47.307-47.142 73.018-68.056l1.352-1.066c4.224-3.405 8.653-6.503 12.8-9.805 9.114-7.040 18.228-14.055 27.674-20.66 5.376-3.763 10.983-7.219 16.461-10.829 8.679-5.735 17.332-11.443 26.241-16.794 6.067-3.661 12.288-7.015 18.484-10.496 8.627-4.864 17.306-9.703 26.164-14.208 6.554-3.354 13.236-6.451 19.892-9.6 8.807-4.173 17.639-8.243 26.625-12.058 6.912-2.944 13.927-5.709 20.967-8.448q13.517-5.248 27.239-10.035c7.219-2.56 14.49-4.813 21.786-7.091q13.927-4.301 28.161-8.064c7.424-1.971 14.874-3.891 22.375-5.632 3.866-0.896 7.68-2.048 11.495-2.893-32.746-179.466-169.853-319.611-344.998-356.416l-2.889-0.508z" />
<glyph unicode="&#xe909;" glyph-name="battery-charging" d="M960.896 571.11h-49.28v24.32c-0.058 54.042-43.852 97.836-97.889 97.894h-715.807c-54.042-0.058-97.836-43.852-97.894-97.889v-294.918c0.073-54.031 43.861-97.811 97.889-97.869h715.807c54.039 0.044 97.836 43.832 97.894 97.863v24.326h49.28c34.854 0.029 63.1 28.276 63.13 63.127v120.041c-0.044 34.843-28.285 63.075-63.127 63.104h-0.003zM845.056 300.518c-0.015-17.3-14.035-31.32-31.333-31.334h-715.803c-17.294 0.029-31.305 14.041-31.334 31.332v294.915c0.029 17.299 14.037 31.316 31.33 31.36h715.806c17.303-0.029 31.32-14.055 31.334-31.359v-0.001zM957.491 391.398h-45.875v113.152h45.875zM692.915 445.517h-167.219c-1.454 0.004-2.722 0.799-3.395 1.978l-0.010 0.019-70.4 126.899c-0.672 1.2-1.935 1.999-3.385 1.999-0.633 0-1.23-0.152-1.757-0.421l0.022 0.010-229.683-113.331c-1.287-0.653-2.154-1.966-2.154-3.482 0-2.141 1.729-3.878 3.868-3.891h160.462c0.007 0 0.014 0 0.022 0 1.455 0 2.721-0.809 3.373-2.002l0.010-0.020 71.347-131.686c0.669-1.212 1.938-2.019 3.396-2.019 0.628 0 1.222 0.15 1.746 0.416l-0.022-0.010 235.52 118.17c1.287 0.653 2.153 1.966 2.153 3.482 0 2.149-1.742 3.891-3.891 3.891-0.001 0-0.002 0-0.003 0v0z" />
<glyph unicode="&#xe90a;" glyph-name="battery-empty" d="M960.896 571.11h-49.28v24.32c-0.058 54.042-43.852 97.836-97.889 97.894h-715.807c-54.042-0.058-97.836-43.852-97.894-97.889v-294.918c0.073-54.031 43.861-97.811 97.889-97.869h715.807c54.039 0.044 97.836 43.832 97.894 97.863v24.326h49.28c34.854 0.029 63.1 28.276 63.13 63.127v120.041c-0.044 34.843-28.285 63.075-63.127 63.104h-0.003zM845.056 300.518c-0.015-17.3-14.035-31.32-31.333-31.334h-715.803c-17.294 0.029-31.305 14.041-31.334 31.332v294.915c0.029 17.299 14.037 31.316 31.33 31.36h715.806c17.303-0.029 31.32-14.055 31.334-31.359v-0.001zM957.491 391.398h-45.875v113.152h45.875z" />
<glyph unicode="&#xe90b;" glyph-name="battery-full" d="M960.896 571.11h-49.28v24.32c-0.058 54.042-43.852 97.836-97.889 97.894h-715.807c-54.042-0.058-97.836-43.852-97.894-97.889v-294.918c0.073-54.031 43.861-97.811 97.889-97.869h715.807c54.039 0.044 97.836 43.832 97.894 97.863v24.326h49.28c34.854 0.029 63.1 28.276 63.13 63.127v120.041c-0.044 34.843-28.285 63.075-63.127 63.104h-0.003zM845.056 300.518c-0.015-17.3-14.035-31.32-31.333-31.334h-715.803c-17.294 0.029-31.305 14.041-31.334 31.332v294.915c0.029 17.299 14.037 31.316 31.33 31.36h715.806c17.303-0.029 31.32-14.055 31.334-31.359v-0.001zM957.491 391.398h-45.875v113.152h45.875zM152.525 564.71h606.566c13.191 0 23.885-10.694 23.885-23.885v-185.702c0-13.191-10.694-23.885-23.885-23.885h-606.566c-13.191 0-23.885 10.694-23.885 23.885v185.702c0 13.191 10.694 23.885 23.885 23.885z" />
<glyph unicode="&#xe90c;" glyph-name="beauty" d="M948.736 543.053v371.2c-0.029 25.202-20.465 45.62-45.67 45.62-12.605 0-24.018-5.107-32.282-13.365l-143.36-143.36c-8.317-8.286-13.47-19.744-13.491-32.406v-227.844c-35.725-5.442-62.795-35.896-62.899-72.693v-460.427c0.044-40.744 33.061-73.761 73.801-73.805h214.327c40.727 0.058 73.724 33.073 73.754 73.802v460.445c-0.097 37.254-27.847 67.998-63.803 72.791l-0.376 0.041zM882.176 863.846v-319.821h-101.658v218.189zM946.432 9.805c0-0.008 0-0.017 0-0.026 0-3.992-3.229-7.23-7.218-7.245h-214.324c-4.015 0-7.27 3.255-7.27 7.27v0 460.416c0.015 4.004 3.264 7.245 7.27 7.245 0 0 0 0 0 0h214.323c3.99-0.015 7.219-3.253 7.219-7.245 0 0 0 0 0 0v0zM874.419 435.994c-18.38 0-33.28-14.9-33.28-33.28v0-314.496c0-18.38 14.9-33.28 33.28-33.28s33.28 14.9 33.28 33.28v314.496c0 18.38-14.9 33.28-33.28 33.28v0zM642.688 819.021c-77.882 80.053-186.645 129.719-307.008 129.719s-229.126-49.666-306.913-129.621l-0.095-0.098c-11.051-11.244-17.874-26.676-17.874-43.701 0-15.699 5.801-30.043 15.376-41.006l205.505-238.007-54.938-502.4c-0.198-1.705-0.31-3.681-0.31-5.683 0-28.814 23.359-52.173 52.173-52.173 0.010 0 0.020 0 0.030 0h214.398c0.009 0 0.019 0 0.029 0 28.814 0 52.173 23.359 52.173 52.173 0 2.002-0.113 3.978-0.332 5.921l0.022-0.238-54.963 502.835 205.158 237.696c9.546 10.892 15.369 25.254 15.369 40.976 0 16.982-6.793 32.377-17.811 43.616l0.010-0.010zM296.218 473.677l79.36-0.282 7.962-72.678h-95.334zM244.736 2.637l36.25 331.622h109.875l36.25-331.622zM410.138 564.045l15.898 84.198c0.368 1.859 0.579 3.996 0.579 6.182 0 18.382-14.901 33.283-33.283 33.283-16.195 0-29.689-11.567-32.67-26.891l-0.034-0.21-19.661-104.166-30.95 107.213c-4.138 14.019-16.894 24.075-32 24.075-18.393 0-33.304-14.911-33.304-33.304 0-3.288 0.476-6.464 1.364-9.464l-0.060 0.236 27.571-95.488-194.739 225.587c65.541 66.097 156.382 107.017 256.781 107.017s191.24-40.92 256.756-106.992l0.025-0.025z" />
<glyph unicode="&#xe90d;" glyph-name="bin" horiz-adv-x="833" d="M791.239 825.315h-161.566v87.938c-0.029 25.815-20.956 46.732-46.771 46.747h-332.656c-25.806-0.029-46.718-20.941-46.747-46.744v-87.941h-161.591c-23.139-0.015-41.894-18.769-41.908-41.907v-155.55c0.015-23.15 18.763-41.916 41.904-41.959h38.405v-586.255c0.058-35.121 28.521-63.574 63.639-63.618h545.298c35.117 0.044 63.574 28.5 63.618 63.613v586.31h38.401c23.156 0.044 41.916 18.803 41.959 41.955v155.553c-0.073 23.133-18.842 41.857-41.985 41.857 0 0 0 0 0 0v0zM270.036 893.464h293.102v-68.149h-293.102zM686.225 2.562h-539.303v583.387h539.354zM766.637 652.485h-700.101v106.319h700.101zM265.811 107.217c18.38 0 33.281 14.9 33.281 33.281v0 307.515c0 18.381-14.9 33.281-33.281 33.281s-33.281-14.9-33.281-33.281v0-307.515c0-18.38 14.9-33.281 33.281-33.281v0zM416.574 107.217c18.38 0 33.281 14.9 33.281 33.281v0 307.515c0 18.381-14.9 33.281-33.281 33.281s-33.281-14.9-33.281-33.281v-307.515c0-18.38 14.9-33.281 33.281-33.281v0zM567.336 107.217c18.38 0 33.281 14.9 33.281 33.281v0 307.515c0 18.38-14.9 33.281-33.281 33.281s-33.281-14.9-33.281-33.281v0-307.515c0-18.38 14.9-33.281 33.281-33.281v0z" />
<glyph unicode="&#xe90e;" glyph-name="book" horiz-adv-x="773" d="M740.173 960h-706.918c-18.38 0-33.28-14.9-33.28-33.28v0-783.13c0.073-60.455 49.062-109.444 109.51-109.517h300.833v-60.646c0.082-20.693 16.876-37.436 37.581-37.436 10.113 0 19.292 3.994 26.048 10.491l49.217 47.092 49.254-47.13c6.739-6.449 15.897-10.419 25.983-10.419 0.018 0 0.037 0 0.055 0h-0.003c5.375 0.007 10.487 1.127 15.119 3.142l-0.246-0.095c13.447 5.835 22.682 18.997 22.682 34.316 0 0.014 0 0.028 0 0.042v-0.002 60.646h104.141c18.38 0 33.28 14.9 33.28 33.28v0 859.366c0 18.371-14.885 33.265-33.253 33.28h-0.001zM706.893 893.44v-640.282h-597.376c-0.026 0-0.056 0-0.086 0-15.502 0-30.248-3.24-43.597-9.080l0.701 0.273v649.088zM109.517 100.608c-23.739 0-42.982 19.244-42.982 42.982s19.244 42.982 42.982 42.982h300.826v-85.965zM546.33 63.718c-5.969 5.734-14.092 9.265-23.040 9.265s-17.070-3.531-23.051-9.276l0.011 0.011-23.296-22.272v145.152h92.595v-145.178zM707.021 100.659h-71.091v85.939h70.861zM138.752 624.64h491.878c18.38 0 33.28 14.9 33.28 33.28v0 149.325c0 18.38-14.9 33.28-33.28 33.28v0h-491.878c-18.38 0-33.28-14.9-33.28-33.28v0-149.325c0-18.38 14.9-33.28 33.28-33.28v0zM172.032 773.965h425.37v-82.765h-425.37z" />
<glyph unicode="&#xe90f;" glyph-name="bookmark-solid" horiz-adv-x="803" d="M769.766 960.051h-736.512c-18.38 0-33.28-14.9-33.28-33.28v0-957.44c0.007-18.375 14.904-33.267 33.28-33.267 7.507 0 14.434 2.486 20.002 6.679l-0.085-0.061 348.314 260.326 348.339-260.326c5.483-4.132 12.41-6.618 19.917-6.618 18.376 0 33.273 14.893 33.28 33.267v957.441c0 18.371-14.885 33.265-33.253 33.28h-0.001z" />
<glyph unicode="&#xe910;" glyph-name="bookmark" horiz-adv-x="803" d="M769.766-63.949c-0.015 0-0.033 0-0.051 0-7.492 0-14.403 2.491-19.948 6.69l0.083-0.060-348.339 260.326-348.314-260.326c-5.483-4.132-12.41-6.618-19.917-6.618-18.376 0-33.273 14.893-33.28 33.267v957.441c0 18.38 14.9 33.28 33.28 33.28v0h736.512c18.38 0 33.28-14.9 33.28-33.28v0-957.44c0-18.38-14.9-33.28-33.28-33.28v0zM401.51 277.811c0.028 0 0.061 0 0.094 0 7.475 0 14.37-2.481 19.906-6.665l-0.083 0.060 315.059-235.52v857.805h-669.952v-857.754l315.059 235.52c5.433 4.061 12.283 6.503 19.703 6.503 0.075 0 0.15 0 0.225-0.001h-0.012z" />
<glyph unicode="&#xe911;" glyph-name="building" horiz-adv-x="901" d="M393.139 828.954h-160.998c-14.138 0-25.6-11.462-25.6-25.6v0-161.101c0-14.138 11.462-25.6 25.6-25.6v0h160.998c14.138 0 25.6 11.462 25.6 25.6v0 160.998c0 0.030 0 0.066 0 0.102 0 14.138-11.462 25.6-25.6 25.6 0 0 0 0 0 0v0zM367.539 667.955h-109.798v109.798h109.798zM507.878 616.653h160.998c14.138 0 25.6 11.462 25.6 25.6v0 160.998c0 14.138-11.462 25.6-25.6 25.6v0h-160.998c-14.138 0-25.6-11.462-25.6-25.6v0-160.998c0-14.138 11.462-25.6 25.6-25.6v0zM533.478 777.651h109.798v-109.798h-109.798zM393.139 568.73h-160.998c-14.138 0-25.6-11.462-25.6-25.6v0-161.024c0-14.138 11.462-25.6 25.6-25.6v0h160.998c14.138 0 25.6 11.462 25.6 25.6v0 161.024c0 14.138-11.462 25.6-25.6 25.6v0zM367.539 407.706h-109.798v109.824h109.798zM393.139 308.506h-160.998c-14.138 0-25.6-11.462-25.6-25.6v0-160.998c0-14.138 11.462-25.6 25.6-25.6v0h160.998c14.138 0 25.6 11.462 25.6 25.6v0 160.998c0 14.138-11.462 25.6-25.6 25.6v0zM367.539 147.507h-109.798v109.798h109.798zM507.878 356.506h160.998c14.138 0 25.6 11.462 25.6 25.6v0 161.024c0 14.138-11.462 25.6-25.6 25.6v0h-160.998c-14.138 0-25.6-11.462-25.6-25.6v0-161.024c0-14.138 11.462-25.6 25.6-25.6v0zM533.478 517.53h109.798v-109.824h-109.798zM867.738 2.534h-43.52v924.16c0 18.38-14.9 33.28-33.28 33.28v0h-680.755c-18.38 0-33.28-14.9-33.28-33.28v-924.16h-43.52c-18.38 0-33.28-14.9-33.28-33.28s14.9-33.28 33.28-33.28v0h834.56c18.38 0 33.28 14.9 33.28 33.28s-14.9 33.28-33.28 33.28v0zM143.411 893.414h614.195v-890.88h-63.13v280.371c0 14.138-11.462 25.6-25.6 25.6v0h-160.998c-14.138 0-25.6-11.462-25.6-25.6v0-280.371h-338.867zM643.277 2.534h-109.798v254.771h109.798z" />
<glyph unicode="&#xe912;" glyph-name="burger" d="M925.235 467.43h-782.566c-54.518 0.058-98.695 44.245-98.739 98.761v4.254c0.233 199.104 161.575 360.446 360.656 360.678h258.736c199.104-0.233 360.446-161.575 360.678-360.656v-4.272c-0.044-54.529-44.236-98.721-98.761-98.765h-0.004zM404.608 864.563c-162.373-0.16-293.958-131.746-294.118-294.103v-4.266c0.015-17.777 14.407-32.187 32.175-32.23h782.57c17.789 0.029 32.201 14.442 32.23 32.228v4.253c-0.16 162.382-131.76 293.973-294.13 294.118h-0.014zM511.565 253.133c-38.575 3.538-72.464 21.187-96.932 47.669l-0.092 0.101c-19.73 22.57-47.716 37.495-79.199 40.037l-0.417 0.027c-0.876 0.040-1.903 0.063-2.935 0.063-21.95 0-41.503-10.266-54.118-26.259l-0.111-0.146c-24.285-27.257-59.485-44.339-98.675-44.339-0.914 0-1.825 0.009-2.735 0.028l0.136-0.002c-67.497 3.924-127.054 34.961-168.464 82.28l-0.24 0.28c-4.566 5.649-7.329 12.92-7.329 20.836 0 18.38 14.9 33.28 33.28 33.28 9.968 0 18.913-4.383 25.012-11.326l0.032-0.037c29.4-32.989 70.707-54.82 117.116-58.709l0.644-0.043c0.705-0.027 1.532-0.042 2.363-0.042 21.384 0 40.424 10.034 52.669 25.65l0.11 0.146c24.675 27.628 60.403 44.939 100.174 44.939 1.098 0 2.193-0.013 3.284-0.039l-0.162 0.003c48.826-2.026 92.314-23.32 123.353-56.427l0.090-0.097c21.837-19.072 36.096-30.72 53.197-31.309 15.13 0.512 29.363 12.211 51.2 31.309 31.128 33.207 74.617 54.502 123.085 56.513l0.358 0.012c0.924 0.023 2.012 0.036 3.103 0.036 39.785 0 75.526-17.31 100.105-44.808l0.114-0.13c12.365-15.762 31.413-25.794 52.804-25.794 0.823 0 1.642 0.015 2.457 0.044l-0.118-0.003c47.075 3.945 88.389 25.826 117.603 58.7l0.157 0.18c6.146 7.272 15.274 11.859 25.472 11.859 18.383 0 33.286-14.903 33.286-33.286 0-8.185-2.954-15.68-7.854-21.476l0.040 0.049c-41.651-47.6-101.208-78.636-168.051-82.53l-0.653-0.030c-0.767-0.016-1.67-0.025-2.576-0.025-39.197 0-74.404 17.082-98.583 44.208l-0.115 0.131c-12.736 16.139-32.296 26.405-54.254 26.405-1.033 0-2.060-0.023-3.081-0.068l0.145 0.005c-31.91-2.562-59.906-17.488-79.524-39.926l-0.118-0.138c-24.073-26.222-57.202-43.794-94.4-47.739l-0.653-0.056zM851.712-35.123h-621.184c-87.204 0.087-157.876 70.75-157.978 157.942v0.010c-0.008 0.404-0.013 0.88-0.013 1.358 0 38.044 30.735 68.909 68.729 69.119h799.687c37.938-0.058 68.678-30.798 68.736-68.73v-0.006c0.003-0.35 0.004-0.764 0.004-1.178 0-87.358-70.666-158.211-157.953-158.514h-0.029zM141.286 126.746c-1.202 0-2.176-0.974-2.176-2.176v0c-0.005-0.373-0.009-0.814-0.009-1.256 0-50.589 40.875-91.632 91.4-91.903h621.21c50.459 0.073 91.345 40.958 91.418 91.411v0.007c0 2.944-0.973 3.917-2.176 3.917z" />
<glyph unicode="&#xe913;" glyph-name="button" d="M990.797 87.885h-957.44c-18.38 0-33.28 14.9-33.28 33.28v0 653.619c0 18.38 14.9 33.28 33.28 33.28h957.44c18.38 0 33.28-14.9 33.28-33.28v0-653.619c0-18.38-14.9-33.28-33.28-33.28v0zM66.637 154.445h890.88v587.085h-890.88zM661.632 306.125c-18.364 0.022-33.242 14.913-33.242 33.28 0 9.174 3.712 17.482 9.717 23.502l85.042 85.093-85.043 85.069c-5.705 5.964-9.217 14.067-9.217 22.99 0 18.38 14.9 33.28 33.28 33.28 8.923 0 17.026-3.512 23.002-9.229l108.583-108.583c6.019-6.022 9.741-14.339 9.741-23.526s-3.723-17.505-9.742-23.527l-108.595-108.595c-6.020-6.023-14.338-9.75-23.526-9.754h-0.001z" />
<glyph unicode="&#xe914;" glyph-name="calandar" d="M957.466 823.757h-149.094v35.302c0 18.38-14.9 33.28-33.28 33.28s-33.28-14.9-33.28-33.28v-35.302h-459.648v35.302c0 18.38-14.9 33.28-33.28 33.28s-33.28-14.9-33.28-33.28v0-35.302h-149.094c-36.76 0-66.56-29.8-66.56-66.56v0-687.078c0-36.76 29.8-66.56 66.56-66.56v0h890.88c36.76 0 66.56 29.8 66.56 66.56v0 687.155c-0.044 36.7-29.783 66.44-66.479 66.483h-0.004zM215.629 757.197v-41.293c0-18.38 14.9-33.28 33.28-33.28s33.28 14.9 33.28 33.28v0 41.318h459.648v-41.318c0-18.38 14.9-33.28 33.28-33.28s33.28 14.9 33.28 33.28v41.344h149.094v-146.253h-890.88v146.227zM66.56 70.17v474.291h890.88v-474.24z" />
<glyph unicode="&#xe915;" glyph-name="camera" d="M907.341 26.701h-790.682c-64.4 0.073-116.586 52.26-116.659 116.652v471.764c0.087 64.389 52.268 116.561 116.652 116.634h113.927c10.856 0.005 20.094 6.925 23.549 16.593l0.054 0.175 24.627 71.168c10.278 29.105 37.55 49.586 69.606 49.587h327.194c32.046-0.013 59.306-20.49 69.422-49.072l0.159-0.515 24.627-71.168c3.495-9.859 12.739-16.793 23.603-16.794h113.92c64.391-0.073 116.572-52.245 116.659-116.625v-471.766c-0.087-64.389-52.268-116.561-116.652-116.634h-0.007zM116.659 665.318c-27.657-0.029-50.070-22.442-50.099-50.096v-471.76c0.029-27.657 22.442-50.070 50.096-50.099h790.684c27.668 0.015 50.096 22.433 50.125 50.096v471.657c-0.044 27.66-22.462 50.070-50.122 50.099h-113.923c-0.012 0-0.027 0-0.041 0-39.826 0-73.707 25.453-86.264 60.979l-0.197 0.64-24.627 71.117c-0.975 2.812-3.594 4.798-6.68 4.813h-327.196c-3.092-0.020-5.717-2.002-6.692-4.763l-0.015-0.050-24.627-71.117c-12.754-36.166-46.635-61.619-86.461-61.619-0.014 0-0.029 0-0.043 0h0.002zM512 198.912c-122.383 0-221.594 99.211-221.594 221.594s99.211 221.594 221.594 221.594c122.383 0 221.594-99.211 221.594-221.594v0c-0.146-122.324-99.269-221.448-221.58-221.594h-0.014zM512 575.565c-85.637 0-155.059-69.422-155.059-155.059s69.422-155.059 155.059-155.059c85.637 0 155.059 69.422 155.059 155.059v0c-0.102 85.596-69.463 154.957-155.049 155.059h-0.010zM893.44 562.765c0-25.435-20.619-46.054-46.054-46.054s-46.054 20.619-46.054 46.054c0 25.435 20.619 46.054 46.054 46.054s46.054-20.619 46.054-46.054z" />
<glyph unicode="&#xe916;" glyph-name="car" d="M844.416 2.099h-40.806c-51.936 0.058-94.022 42.145-94.080 94.075v24.581h-395.059v-24.576c-0.058-51.936-42.145-94.022-94.075-94.080h-40.812c-51.936 0.058-94.022 42.145-94.080 94.075v25.605c-48.526 6.921-85.434 48.164-85.504 98.041v234.733c0.099 62.341 37.558 115.909 91.182 139.52l0.978 0.384 61.005 204.339c17.681 55.063 68.060 94.373 127.746 95.231l0.1 0.001h462.029c59.768-0.874 110.127-40.181 127.528-94.27l0.267-0.962 61.030-204.339c54.602-23.995 92.061-77.563 92.16-139.891v-234.739c-0.070-49.884-36.978-91.127-84.975-97.986l-0.529-0.062v-25.6c-0.058-51.945-42.159-94.036-94.101-94.080h-0.004zM247.936 187.315h528.154v-91.136c0.015-15.193 12.327-27.505 27.519-27.52h40.808c15.198 0.015 27.516 12.324 27.546 27.517v91.139h53.094c17.884 0.015 32.38 14.502 32.41 32.381v234.729c-0.065 39.304-26.512 72.412-62.576 82.568l-0.605 0.146-22.17 6.016-2.202 22.861c-0.353 3.434-0.994 6.562-1.91 9.57l0.093-0.354-61.030 204.39c-9.324 27.254-34.261 46.695-63.879 47.741l-0.121 0.003h-462.029c-29.737-1.056-54.67-20.495-63.853-47.251l-0.147-0.493-61.005-204.365c-0.845-2.705-1.495-5.886-1.826-9.161l-0.017-0.208-2.304-22.758-22.067-5.99c-36.668-10.295-63.112-43.41-63.155-82.709v-234.731c0.015-17.879 14.505-32.369 32.383-32.384h53.121v-91.136c0.015-15.193 12.327-27.505 27.519-27.52h40.808c15.198 0.015 27.516 12.324 27.546 27.517v0.003zM750.259 260.070c-57.247 0-103.654 46.408-103.654 103.654s46.408 103.654 103.654 103.654c57.247 0 103.654-46.408 103.654-103.654v0c-0.073-57.217-46.437-103.582-103.647-103.654h-0.007zM750.259 400.87c-20.487 0-37.094-16.608-37.094-37.094s16.608-37.094 37.094-37.094c20.487 0 37.094 16.608 37.094 37.094v0c-0.058 20.453-16.637 37.014-37.092 37.043h-0.003zM273.741 260.070c-57.247 0-103.654 46.408-103.654 103.654s46.408 103.654 103.654 103.654c57.247 0 103.654-46.408 103.654-103.654v0c-0.073-57.217-46.437-103.582-103.647-103.654h-0.007zM273.741 400.87c-20.476-0.015-37.069-16.617-37.069-37.094 0-20.487 16.608-37.094 37.094-37.094s37.094 16.608 37.094 37.094v0c-0.058 20.462-16.652 37.029-37.119 37.043h-0.001zM727.373 545.075h-430.746c-0.008 0-0.018 0-0.028 0-27.782 0-50.304 22.522-50.304 50.304 0 5.13 0.768 10.081 2.195 14.744l-0.094-0.356 34.688 116.173c8.445 25.367 31.665 43.464 59.209 44.158l0.081 0.002h339.251c27.624-0.696 50.845-18.793 59.159-43.708l0.131-0.452 34.688-116.122c1.337-4.314 2.108-9.273 2.108-14.413 0-27.796-22.533-50.33-50.33-50.33-0.003 0-0.006 0-0.009 0v0zM318.438 611.635h387.149l-27.469 91.93h-332.237zM346.88 706.893v0z" />
<glyph unicode="&#xe917;" glyph-name="cart" d="M898.381 291.994h-583.194c0 0 0 0 0 0-15.581 0-28.661 10.708-32.284 25.166l-0.049 0.229-90.266 370.893c-0.128 0.512-0.256 1.024-0.358 1.51l-36.864 151.398h-122.086c-18.38 0-33.28 14.9-33.28 33.28s14.9 33.28 33.28 33.28v0h148.25c0 0 0 0 0 0 15.581 0 28.661-10.708 32.284-25.166l0.049-0.229 36.992-152.038 739.84 2.56c18.38 0 33.28-14.9 33.28-33.28 0-2.836-0.355-5.589-1.022-8.217l0.050 0.23-92.339-374.221c-3.667-14.671-16.721-25.371-32.279-25.395h-0.003zM341.325 358.554h530.97l75.904 307.507-681.139-2.278zM368.64-11.75c-70.692 0-128 57.308-128 128s57.308 128 128 128c70.692 0 128-57.308 128-128v0c-0.116-70.646-57.355-127.884-127.989-128h-0.011zM368.64 177.69c-33.932 0-61.44-27.508-61.44-61.44s27.508-61.44 61.44-61.44c33.932 0 61.44 27.508 61.44 61.44v0c-0.029 33.941-27.507 61.455-61.432 61.542h-0.008zM827.392-11.75c-70.692 0-128 57.308-128 128s57.308 128 128 128c70.692 0 128-57.308 128-128v0c-0.116-70.646-57.355-127.884-127.989-128h-0.011zM827.392 177.69c-33.932 0-61.44-27.508-61.44-61.44s27.508-61.44 61.44-61.44c33.932 0 61.44 27.508 61.44 61.44v0c-0.014 33.947-27.501 61.47-61.433 61.542h-0.007z" />
<glyph unicode="&#xe918;" glyph-name="chat" horiz-adv-x="986" d="M194.586-64c-18.38 0-33.28 14.9-33.28 33.28v0 179.891h-83.046c-43.175 0.058-78.161 35.035-78.234 78.201v456.481c0.058 43.184 35.050 78.175 78.228 78.234h662.739c43.184-0.058 78.175-35.050 78.234-78.228v-456.505c-0.073-43.173-35.059-78.15-78.228-78.208h-331.116l-191.078-202.701c-6.082-6.438-14.678-10.445-24.21-10.445-0.003 0-0.006 0-0.008 0v0zM78.259 695.526c-6.413-0.085-11.588-5.261-11.674-11.665v-456.507c0.085-6.413 5.261-11.588 11.665-11.674h116.334c18.38 0 33.28-14.9 33.28-33.28v0-129.331l143.36 152.141c6.082 6.438 14.678 10.445 24.21 10.445 0.012 0 0.024 0 0.035 0h345.598c6.413 0.085 11.588 5.261 11.674 11.665v456.533c-0.085 6.413-5.261 11.588-11.665 11.674h-0.008zM908.186 347.034h-24.013c-18.38 0-33.28 14.9-33.28 33.28s14.9 33.28 33.28 33.28v0h24.013c6.413 0.085 11.588 5.261 11.674 11.665v456.507c-0.085 6.413-5.261 11.588-11.665 11.674h-662.741c-6.413-0.085-11.588-5.261-11.674-11.665v-55.893c0-18.38-14.9-33.28-33.28-33.28s-33.28 14.9-33.28 33.28v55.885c0.058 43.175 35.035 78.161 78.201 78.234h662.74c43.184-0.058 78.175-35.050 78.234-78.228v-456.505c-0.058-43.175-35.035-78.161-78.201-78.234h-0.007zM630.63 544.973h-442.086c-18.38 0-33.28 14.9-33.28 33.28s14.9 33.28 33.28 33.28v0h442.086c18.38 0 33.28-14.9 33.28-33.28s-14.9-33.28-33.28-33.28v0zM630.63 422.349h-442.086c-18.38 0-33.28 14.9-33.28 33.28s14.9 33.28 33.28 33.28v0h442.086c18.38 0 33.28-14.9 33.28-33.28s-14.9-33.28-33.28-33.28v0zM630.63 299.776h-442.086c-18.38 0-33.28 14.9-33.28 33.28s14.9 33.28 33.28 33.28v0h442.086c18.38 0 33.28-14.9 33.28-33.28s-14.9-33.28-33.28-33.28v0z" />
<glyph unicode="&#xe919;" glyph-name="check-circle" d="M449.803 261.333c-0.026 0-0.057 0-0.088 0-9.157 0-17.446 3.718-23.439 9.728l-150.482 150.507c-6.353 6.072-10.303 14.612-10.303 24.076 0 18.38 14.9 33.281 33.281 33.281 9.451 0 17.981-3.939 24.039-10.265l0.011-0.012 126.979-126.979 219.474 219.449c6.022 6.019 14.34 9.741 23.527 9.741 18.381 0 33.281-14.901 33.281-33.281 0-9.194-3.728-17.516-9.754-23.54l-243.001-242.976c-6.021-6.011-14.333-9.728-23.514-9.728-0.005 0-0.009 0-0.014 0h0.001zM512.013-64c-282.777 0-512.013 229.236-512.013 512.013s229.236 512.013 512.013 512.013c282.777 0 512.013-229.236 512.013-512.013v0c-0.32-282.648-229.365-511.693-511.982-512.013h-0.031zM512.013 893.464c-246.016 0-445.451-199.435-445.451-445.451s199.435-445.451 445.451-445.451c246.016 0 445.451 199.435 445.451 445.451v0c-0.291 245.898-199.552 445.16-445.423 445.451h-0.028z" />
<glyph unicode="&#xe91a;" glyph-name="check" d="M372.070 102.886c-10.597 0.002-20.19 4.296-27.136 11.239l-333.773 333.773c-6.669 6.898-10.779 16.308-10.779 26.677 0 21.208 17.192 38.4 38.4 38.4 10.369 0 19.779-4.11 26.688-10.79l-0.011 0.010 306.611-306.611 586.24 586.24c6.898 6.669 16.308 10.779 26.677 10.779 21.208 0 38.4-17.192 38.4-38.4 0-10.369-4.11-19.779-10.79-26.688l0.010 0.011-613.427-613.453c-6.943-6.913-16.519-11.187-27.093-11.187-0.006 0-0.012 0-0.018 0h0.001z" />
<glyph unicode="&#xe91b;" glyph-name="coin" d="M519.424 480.435c-43.52 9.958-95.36 33.459-95.36 88.781 0 0.013 0 0.028 0 0.043 0 48.58 39.382 87.962 87.962 87.962 43.404 0 79.466-31.438 86.657-72.785l0.076-0.525c2.561-16.054 16.308-28.176 32.886-28.176 18.38 0 33.28 14.9 33.28 33.28 0 2.087-0.192 4.129-0.56 6.109l0.032-0.205c-10.687 62.322-57.704 111.267-118.096 124.661l-1.021 0.19v50.586c0 18.38-14.9 33.28-33.28 33.28s-33.28-14.9-33.28-33.28v-50.33c-69.779-15.877-121.096-77.333-121.216-150.796v-0.013c0-76.262 53.606-132.25 145.638-153.293 36.173-9.984 96.819-34.842 96.819-89.19-0.047-48.544-39.411-87.879-87.962-87.879-45.413 0-82.788 34.415-87.468 78.586l-0.033 0.384c-1.981 16.92-16.234 29.926-33.524 29.926-1.031 0-2.052-0.046-3.060-0.137l0.13 0.009c-16.898-1.741-29.966-15.902-29.966-33.115 0-1.176 0.061-2.338 0.18-3.483l-0.012 0.143c6.806-66.908 55.671-120.706 119.453-134.85l1.021-0.19v-50.509c0-18.38 14.9-33.28 33.28-33.28s33.28 14.9 33.28 33.28v0 50.33c69.787 15.849 121.114 77.308 121.216 150.773v0.011c0 71.91-53.069 127.77-147.072 153.702zM512 960c-282.77 0-512-229.23-512-512s229.23-512 512-512c282.77 0 512 229.23 512 512v0c-0.335 282.635-229.365 511.665-511.968 512h-0.032zM512 2.56c-246.010 0-445.44 199.43-445.44 445.44s199.43 445.44 445.44 445.44c246.010 0 445.44-199.43 445.44-445.44v0c-0.277-245.904-199.539-445.175-445.412-445.466h-0.028z" />
<glyph unicode="&#xe91c;" glyph-name="copy" horiz-adv-x="839" d="M824.294 653.005l-178.176 178.176c-9.089 9.156-21.68 14.823-35.595 14.823-0.086 0-0.172 0-0.258-0.001h-445.811c-27.935-0.029-50.571-22.674-50.586-50.61v-808.807c0.058-27.904 22.678-50.505 50.583-50.534h623.926c27.931 0.029 50.567 22.656 50.611 50.581v630.583c0.001 0.095 0.001 0.208 0.001 0.32 0 13.852-5.616 26.392-14.695 35.468v0zM745.677 637.491h-111.36v111.386zM180.531 2.611v776.832h387.226v-156.006c0-0.031 0-0.067 0-0.103 0-28.846 23.319-52.246 52.135-52.377h152.666v-568.32zM529.638 926.771c0 18.38-14.9 33.28-33.28 33.28v0h-445.747c-27.943-0.044-50.582-22.692-50.611-50.634v-736.438c0-18.38 14.9-33.28 33.28-33.28s33.28 14.9 33.28 33.28v0 720.512h429.798c18.38 0 33.28 14.9 33.28 33.28v0z" />
<glyph unicode="&#xe91d;" glyph-name="copywrite" d="M415.36 220.723c-36.466 21.2-65.306 51.999-83.549 88.964l-0.547 1.225c-18.555 40.345-29.374 87.536-29.374 137.254s10.819 96.91 30.232 139.348l-0.858-2.094c18.871 38.028 47.694 68.693 83.095 89.293l1.001 0.538c35.186 19.855 77.255 31.553 122.057 31.553 2.018 0 4.030-0.024 6.036-0.071l-0.298 0.006c0.598 0.005 1.306 0.007 2.014 0.007 31.022 0 60.85-5.109 88.69-14.532l-1.949 0.573c28.319-9.485 52.823-23.251 74.128-40.767l-0.4 0.319c5.388-3.898 9.717-8.931 12.692-14.768l0.108-0.233c2.278-5.321 3.602-11.514 3.602-18.015 0-0.462-0.007-0.922-0.020-1.38l0.002 0.067c0.014-0.404 0.022-0.878 0.022-1.354 0-9.518-3.246-18.277-8.692-25.231l0.068 0.090c-4.681-6.5-12.215-10.692-20.731-10.726h-0.005c-11.068 0.354-21.207 4.054-29.514 10.114l0.151-0.105c-16.423 12.91-35.364 23.667-55.803 31.363l-1.464 0.483c-16.88 5.69-36.319 8.973-56.525 8.973-0.765 0-1.529-0.005-2.291-0.014l0.116 0.001c-2.764 0.198-5.99 0.311-9.241 0.311-41.142 0-78.065-18.067-103.267-46.699l-0.131-0.152c-24.051-39.072-38.3-86.41-38.3-137.075s14.248-98.003 38.956-138.225l-0.657 1.149c25.334-28.785 62.256-46.852 103.399-46.852 3.252 0 6.477 0.113 9.672 0.335l-0.431-0.024c0.508-0.006 1.107-0.009 1.708-0.009 19.776 0 38.753 3.417 56.375 9.692l-1.174-0.365c22.557 8.769 42.028 19.361 59.901 32.055l-0.841-0.567c4.034 2.491 8.74 4.894 13.64 6.922l0.67 0.246c4.427 1.814 9.564 2.867 14.948 2.867 0.037 0 0.074 0 0.111 0h-0.006c8.518-0.068 16.044-4.26 20.684-10.677l0.052-0.075c5.377-6.865 8.623-15.624 8.623-25.141 0-0.468-0.008-0.933-0.023-1.397l0.002 0.067c0.005-0.265 0.008-0.578 0.008-0.892 0-6.531-1.32-12.753-3.709-18.415l0.117 0.312c-3.007-6.232-7.35-11.395-12.685-15.28l-0.115-0.080c-20.913-17.177-45.414-30.941-72.098-39.969l-1.63-0.479c-25.927-8.85-55.796-13.958-86.858-13.958-0.667 0-1.334 0.002-1.999 0.007l0.103-0.001c-1.725-0.043-3.757-0.067-5.795-0.067-44.783 0-86.833 11.699-123.262 32.208l1.261-0.653zM512-64c-282.77 0-512 229.23-512 512s229.23 512 512 512c282.77 0 512-229.23 512-512v0c-0.32-282.641-229.359-511.68-511.969-512h-0.031zM512 893.44c-246.010 0-445.44-199.43-445.44-445.44s199.43-445.44 445.44-445.44c246.010 0 445.44 199.43 445.44 445.44v0c-0.277 245.899-199.542 445.164-445.414 445.44h-0.026z" />
<glyph unicode="&#xe91e;" glyph-name="couch" d="M1021.338 510.285c-11.399 55.602-54.478 98.681-109.174 109.924l-0.906 0.156c-8.143 1.644-17.503 2.585-27.083 2.585-15.879 0-31.154-2.585-45.428-7.358l1.010 0.293v261.939c-0.044 33.703-27.353 61.012-61.052 61.056h-533.534c-33.709-0.029-61.027-27.347-61.056-61.053v-261.917c-13.272 4.494-28.559 7.088-44.452 7.088-9.568 0-18.916-0.94-27.958-2.733l0.909 0.15c-64.76-13.461-112.726-70.053-112.726-137.847 0-65.839 45.24-121.113 106.33-136.43l0.97-0.206v-275.533c0.029-25.584 20.754-46.318 46.332-46.362h30.596v-33.51c0-18.38 14.9-33.28 33.28-33.28s33.28 14.9 33.28 33.28v33.51h522.547v-33.51c0-18.38 14.9-33.28 33.28-33.28s33.28 14.9 33.28 33.28v0 33.51h30.566c25.582 0.044 46.307 20.778 46.336 46.359v275.408c62.097 15.563 107.355 70.881 107.355 136.77 0 9.807-1.003 19.379-2.911 28.62l0.157-0.911zM282.342 354.125h459.315l-0.307-32.666h-458.701zM773.274 872.32v-302.592c-18.918-23.605-30.367-53.907-30.387-86.882v-0.004l-0.589-62.182h-460.595l-0.589 61.85c0 0.045 0 0.098 0 0.152 0 33.041-11.452 63.407-30.602 87.346l0.215-0.278v302.592zM140.544 408.525c-40.874 0-74.009 33.135-74.009 74.010s33.135 74.010 74.010 74.010c40.874 0 74.010-33.135 74.010-74.010 0-0.117 0-0.234-0.001-0.351v0.018l0.896-94.72 0.922-94.72c-0.381-1.26-0.704-2.777-0.906-4.332l-0.016-0.148c0.233-1.865 0.583-3.53 1.056-5.142l-0.057 0.227 1.843-192.563h-44.493v284.339c0 18.371-14.885 33.265-33.253 33.28h-0.001zM284.877 90.701l-1.587 164.198h457.446l-1.562-164.198zM940.595 435.482c-13.642-16.513-34.122-26.957-57.042-26.957-0.034 0-0.068 0-0.102 0h0.005c-18.38 0-33.28-14.9-33.28-33.28v0-284.544h-44.467l1.843 192.563c0.417 1.386 0.767 3.051 0.982 4.758l0.016 0.157c-0.214 1.699-0.537 3.216-0.974 4.684l0.052-0.204 0.922 94.72 0.896 95.104c0 0.024 0 0.053 0 0.082 0 40.889 33.147 74.035 74.035 74.035s74.035-33.147 74.035-74.035c0-17.953-6.39-34.414-17.020-47.231l0.099 0.122z" />
<glyph unicode="&#xe91f;" glyph-name="coupon-location" d="M760.474 768.461c-84.322 0-152.678-68.356-152.678-152.678s68.356-152.678 152.678-152.678c84.322 0 152.678 68.356 152.678 152.678v0c-0.073 84.293-68.386 152.606-152.672 152.678h-0.007zM760.474 529.664c-0.008 0-0.017 0-0.026 0-47.576 0-86.144 38.568-86.144 86.144s38.568 86.144 86.144 86.144c47.576 0 86.144-38.568 86.144-86.144 0-0.009 0-0.018 0-0.027v0.001c-0.058-47.544-38.577-86.071-86.111-86.144h-0.007zM1024 608.64c0 145.535-117.979 263.514-263.514 263.514s-263.514-117.979-263.514-263.514v0-25.242c0.614-8.525 1.894-16.973 3.174-25.421h-114.099c-23.458-0.056-44.353-10.984-57.919-28.010l-0.116-0.15-16.026-20.48c-1.41-1.547-3.434-2.514-5.683-2.514s-4.273 0.967-5.678 2.508l-0.005 0.006-16.102 20.48c-13.524 17.209-34.339 28.161-57.712 28.161-0.141 0-0.281 0-0.422-0.001h0.022l-138.65-0.154c-0.207 0.002-0.452 0.003-0.697 0.003-47.791 0-86.6-38.461-87.162-86.119v-0.053l0.512-361.498c0.59-47.619 39.33-85.995 87.034-85.995 0.326 0 0.652 0.002 0.977 0.005h-0.050l138.675 0.154c23.468 0.048 44.373 10.978 57.945 28.010l0.116 0.15 16.051 20.48c1.301 1.57 3.251 2.563 5.433 2.563 0.070 0 0.14-0.001 0.209-0.003h-0.010c2.244-0.073 4.249-1.041 5.68-2.556l0.004-0.004 16.102-20.48c13.699-17.121 34.581-28 58.004-28.032h0.005l405.888 0.435c0.094 0 0.205-0.001 0.317-0.001 23.892 0 45.571 9.479 61.48 24.881l-0.024-0.023c16.104 15.434 26.113 37.118 26.113 61.14 0 0.105 0 0.211-0.001 0.316v-0.016l-0.23 171.955c64 75.878 135.091 184.576 143.36 300.621zM808.218 97.331c-3.965-3.818-9.366-6.17-15.316-6.17-0.070 0-0.139 0-0.208 0.001h0.011l-405.914-0.41c-0.025 0-0.054 0-0.084 0-2.225 0-4.219 0.989-5.566 2.551l-0.008 0.009-16.102 20.48c-13.536 17.135-34.313 28.033-57.636 28.033-0.14 0-0.28 0-0.42-0.001h-0.106c-0.1 0-0.218 0.001-0.336 0.001-23.369 0-44.179-10.952-57.579-28.003l-0.119-0.158-16.077-20.634c-1.337-1.571-3.317-2.561-5.527-2.561-0.037 0-0.074 0-0.111 0.001h0.006l-138.624-0.154c-0.289-0.015-0.628-0.023-0.969-0.023-10.977 0-19.936 8.636-20.456 19.484l-0.002 0.047-0.486 361.498c0.509 10.905 9.474 19.553 20.459 19.553 0.323 0 0.643-0.007 0.962-0.022l-0.045 0.002 138.598 0.154c0.050 0.001 0.11 0.002 0.169 0.002 2.215 0 4.198-0.99 5.531-2.552l0.008-0.010 16.102-20.48c13.524-17.209 34.339-28.161 57.711-28.161 0.123 0 0.246 0 0.368 0.001h-0.019c0.104-0.001 0.226-0.001 0.349-0.001 23.372 0 44.187 10.952 57.592 28.003l0.119 0.158 15.974 20.48c1.369 1.572 3.374 2.561 5.609 2.561 0.035 0 0.070 0 0.105-0.001l130.248 0.128c48.64-144.102 171.878-264.090 214.63-302.413 7.749-6.978 18.057-11.246 29.363-11.246s21.615 4.268 29.403 11.282l-0.040-0.035c6.374 5.709 14.592 13.286 24.090 22.477v-100.787c-0.084-5.138-2.234-9.757-5.653-13.077l-0.005-0.004zM760.474 252.518c-52.48 49.92-186.547 190.746-196.941 334.413v21.709c0 108.782 88.185 196.966 196.966 196.966s196.966-88.185 196.966-196.966v-20.48c-10.445-144.768-144.538-285.722-196.992-335.642zM309.018 423.45c-18.38 0-33.28-14.9-33.28-33.28v0-56.448c0-18.38 14.9-33.28 33.28-33.28s33.28 14.9 33.28 33.28v56.448c0 18.38-14.9 33.28-33.28 33.28v0zM309.018 281.677c-18.38 0-33.28-14.9-33.28-33.28v0-56.448c0-18.38 14.9-33.28 33.28-33.28s33.28 14.9 33.28 33.28v56.448c0 18.38-14.9 33.28-33.28 33.28v0z" />
<glyph unicode="&#xe920;" glyph-name="coupon" d="M107.162 101.453c-0.338-0.004-0.738-0.006-1.138-0.006-57.656 0-104.497 46.307-105.358 103.759l-0.001 0.081-0.666 484.096c0.706 57.668 47.619 104.145 105.388 104.145 0.336 0 0.671-0.002 1.006-0.005h-0.051l152.653 0.154c27.811-0.012 52.601-12.937 68.702-33.103l0.136-0.177 21.555-27.52c3.823-4.703 9.607-7.683 16.088-7.683 0.131 0 0.262 0.001 0.392 0.004h-0.020c0.111-0.002 0.242-0.003 0.374-0.003 6.488 0 12.28 2.98 16.083 7.646l0.030 0.038 21.453 27.546c16.249 20.353 41.059 33.28 68.887 33.28 0.001 0 0.002 0 0.002 0v0l444.16 0.563c0.338 0.004 0.738 0.006 1.138 0.006 57.656 0 104.497-46.307 105.358-103.759l0.001-0.081 0.64-484.096c0-0.085 0-0.185 0-0.285 0-28.959-12.069-55.099-31.452-73.664l-0.037-0.035c-19.256-18.657-45.542-30.157-74.514-30.157-0.12 0-0.239 0-0.358 0.001h0.019l-444.186-0.538c-27.793 0.025-52.563 12.947-68.651 33.103l-0.136 0.177-21.581 27.52c-3.832 4.703-9.624 7.683-16.112 7.683-0.131 0-0.263-0.001-0.394-0.004h0.020c-0.115 0.002-0.25 0.004-0.385 0.004-6.477 0-12.258-2.981-16.046-7.645l-0.030-0.038-21.453-27.52c-16.226-20.409-41.037-33.391-68.882-33.434l-152.481-0.179zM258.97 727.142v0l-152.499-0.179c-0.327 0.010-0.712 0.016-1.098 0.016-20.971 0-38.058-16.634-38.785-37.427l-0.002-0.067 0.64-484.096c0.769-20.814 17.828-37.395 38.759-37.395 0.423 0 0.844 0.007 1.264 0.020l-0.061-0.002 152.474 0.179c0.056-0.001 0.121-0.001 0.187-0.001 6.571 0 12.434 3.030 16.268 7.769l0.031 0.039 21.453 27.52c16.037 20.342 40.678 33.282 68.342 33.282 0.192 0 0.385-0.001 0.577-0.002h-0.030c0.148 0.001 0.322 0.001 0.497 0.001 27.671 0 52.321-12.939 68.227-33.098l0.14-0.184 21.581-27.546c3.865-4.704 9.683-7.681 16.196-7.681 0.084 0 0.168 0 0.252 0.001h-0.013l444.032 0.538c0.074 0 0.161-0.001 0.249-0.001 11.023 0 21.033 4.341 28.412 11.407l-0.015-0.014c6.901 6.578 11.209 15.824 11.264 26.076v0.010l-0.666 484.096c-0.77 20.813-17.828 37.394-38.759 37.394-0.414 0-0.826-0.006-1.237-0.019l0.060 0.001-444.006-0.538c-0.069 0.001-0.15 0.001-0.231 0.001-6.539 0-12.383-2.975-16.252-7.646l-0.028-0.035-21.453-27.494c-16.248-20.441-41.11-33.431-69.007-33.431-27.793 0-52.574 12.894-68.689 33.026l-0.135 0.174-21.581 27.52c-3.87 4.764-9.728 7.783-16.29 7.783-0.024 0-0.048 0-0.072 0h0.004zM367.744 523.827c-18.38 0-33.28 14.9-33.28 33.28v0 55.424c0 18.38 14.9 33.28 33.28 33.28s33.28-14.9 33.28-33.28v-55.424c0-18.38-14.9-33.28-33.28-33.28v0zM367.744 387.021c-18.38 0-33.28 14.9-33.28 33.28v0 55.398c0 18.38 14.9 33.28 33.28 33.28s33.28-14.9 33.28-33.28v0-55.398c0-18.38-14.9-33.28-33.28-33.28v0zM367.744 250.163c-18.38 0-33.28 14.9-33.28 33.28v0 55.424c0 18.38 14.9 33.28 33.28 33.28s33.28-14.9 33.28-33.28v-55.424c0-18.38-14.9-33.28-33.28-33.28v0z" />
<glyph unicode="&#xe921;" glyph-name="credit-card" d="M938.266 801.587h-852.48c-47.334-0.029-85.702-38.379-85.76-85.703v-535.609c0.058-47.341 38.419-85.702 85.754-85.76h852.486c47.33 0.073 85.676 38.429 85.734 85.755v535.506c0 47.365-38.375 85.767-85.73 85.811h-0.004zM85.786 735.027h852.48c10.589-0.015 19.171-8.587 19.2-19.172v-77.597h-890.88v77.594c0.029 10.578 8.596 19.145 19.172 19.174h0.003zM938.266 161.152h-852.48c-10.592 0.029-19.171 8.608-19.2 19.197v342.198h890.88v-342.272c-0.029-10.592-8.608-19.171-19.197-19.2h-0.003zM449.050 433.818h-261.683c-18.38 0-33.28-14.9-33.28-33.28s14.9-33.28 33.28-33.28v0h261.683c18.38 0 33.28 14.9 33.28 33.28s-14.9 33.28-33.28 33.28v0zM444.979 303.36h-261.683c-18.38 0-33.28-14.9-33.28-33.28s14.9-33.28 33.28-33.28v0h261.683c18.38 0 33.28 14.9 33.28 33.28s-14.9 33.28-33.28 33.28v0zM818.202 425.856h-102.195c-28.902-0.029-52.323-23.451-52.352-52.349v-102.224c0.029-28.902 23.451-52.323 52.349-52.352h102.198c28.902 0.029 52.323 23.451 52.352 52.349v102.224c-0.029 28.902-23.451 52.323-52.349 52.352h-0.003zM803.994 285.466h-73.779v73.83h73.779z" />
<glyph unicode="&#xe922;" glyph-name="crop" d="M990.72 255.104h-219.264v419.046c0 18.38-14.9 33.28-33.28 33.28v0h-419.021v219.315c0 18.38-14.9 33.28-33.28 33.28s-33.28-14.9-33.28-33.28v0-219.315h-219.29c-18.38 0-33.28-14.9-33.28-33.28s14.9-33.28 33.28-33.28v0h219.29v-419.021c0-18.38 14.9-33.28 33.28-33.28v0h419.021v-219.315c0-18.38 14.9-33.28 33.28-33.28s33.28 14.9 33.28 33.28v0 219.315h219.29c18.38 0 33.28 14.9 33.28 33.28s-14.9 33.28-33.28 33.28v0zM319.13 255.104v385.766h385.766v-385.766z" />
<glyph unicode="&#xe923;" glyph-name="cs" d="M920.166 489.856v31.616c0 225.254-182.605 407.859-407.859 407.859s-407.859-182.605-407.859-407.859v0-31.386c-61.174-21.168-104.338-78.233-104.448-145.395v-2.573c0.093-81.156 63.11-147.563 142.882-153.062l0.478-0.026c16.905-124.771 122.643-219.956 250.654-220.16h23.496c3.447-1.313 7.433-2.074 11.597-2.074s8.15 0.761 11.827 2.15l-0.23-0.076h47.846c65.372 0.058 118.353 53.030 118.426 118.393v0.007c0 18.38-14.9 33.28-33.28 33.28v0h-144.589c-18.38 0-33.28-14.9-33.28-33.28v0-51.866h-1.792c-102.947 0.116-186.368 83.547-186.47 186.486v243.21c0 18.38-14.9 33.28-33.28 33.28v0h-3.251v23.194c1.673 187.233 153.843 338.369 341.312 338.369s339.639-151.136 341.311-338.21l0.001-0.159v-23.194h-3.891c-18.38 0-33.28-14.9-33.28-33.28v0-243.2c0-18.38 14.9-33.28 33.28-33.28v0h20.659c84.796 0.087 153.513 68.804 153.6 153.592v2.568c-0.161 66.906-43.030 123.757-102.782 144.745l-1.077 0.33zM462.362 53.862h65.92c-9.57-11.394-23.823-18.586-39.756-18.586 0 0 0 0 0 0h-26.163zM66.56 342.093v2.56c0.056 43.603 32.108 79.702 73.935 86.083l0.484 0.061v-174.848c-42.336 6.378-74.419 42.502-74.419 86.12 0 0.008 0 0.017 0 0.025v-0.001zM957.44 342.093c-0.003-43.625-32.099-79.752-73.965-86.059l-0.48-0.059v174.848c42.316-6.441 74.375-42.538 74.445-86.137v-0.007z" />
<glyph unicode="&#xe924;" glyph-name="delete" d="M923.52 803.584h-610.304c-0.042 0-0.093 0-0.143 0-30.902 0-58.536-13.993-76.912-35.988l-0.129-0.159-212.634-255.13c-14.482-17.294-23.277-39.78-23.277-64.32s8.795-47.026 23.405-64.477l-0.128 0.157 212.634-255.104c18.496-22.169 46.132-36.173 77.038-36.173 0.051 0 0.102 0 0.154 0h610.424c55.461 0.058 100.407 44.995 100.48 100.447v510.292c-0.073 55.495-45.077 100.454-100.582 100.454-0.009 0-0.018 0-0.027 0h0.001zM957.466 192.845c-0.044-18.72-15.222-33.88-33.944-33.894h-610.305c-0.012 0-0.027 0-0.041 0-10.424 0-19.747 4.717-25.951 12.132l-0.043 0.053-212.634 255.13c-4.909 5.847-7.892 13.455-7.892 21.76s2.982 15.913 7.934 21.812l-0.043-0.052 212.634 255.13c6.242 7.484 15.571 12.211 26.003 12.211 0.011 0 0.022 0 0.034 0h610.43c18.733-0.015 33.916-15.189 33.946-33.917v-0.003zM802.637 645.171c-6.022 6.019-14.339 9.741-23.526 9.741s-17.505-3.723-23.527-9.742l-150.067-150.067-150.042 150.067c-6.071 6.346-14.606 10.29-24.063 10.29-18.38 0-33.28-14.9-33.28-33.28 0-9.457 3.944-17.992 10.278-24.051l150.079-150.079-150.067-150.042c-6.346-6.071-10.29-14.606-10.29-24.063 0-18.38 14.9-33.28 33.28-33.28 9.457 0 17.992 3.944 24.051 10.278l150.054 150.054 150.067-150.042c5.964-5.705 14.067-9.217 22.99-9.217 18.38 0 33.28 14.9 33.28 33.28 0 8.923-3.512 17.026-9.229 23.002l-150.055 150.030 150.067 150.067c6.019 6.022 9.741 14.339 9.741 23.526s-3.723 17.505-9.742 23.527v0z" />
<glyph unicode="&#xe925;" glyph-name="document-check" horiz-adv-x="814" d="M798.638 742.241l-202.245 202.245c-9.527 9.492-22.67 15.361-37.184 15.361-0.086 0-0.172 0-0.257-0.001h-505.984c-29.233-0.015-52.928-23.709-52.942-52.941v-917.963c0.015-29.233 23.709-52.928 52.941-52.942h708.294c29.233 0.015 52.928 23.709 52.942 52.941v715.846c0 0.045 0 0.098 0 0.151 0 14.589-5.952 27.787-15.561 37.299l-0.004 0.004zM581.672 865.124l141.802-141.751h-141.802zM66.536 2.587v890.902h448.6v-181.611c0-0.038 0-0.083 0-0.129 0-30.266 24.463-54.819 54.695-54.964h177.785v-654.224zM539.047 526.095l-182.865-200.325-81.077 88.834c-6.108 6.67-14.856 10.836-24.577 10.836-18.384 0-33.288-14.904-33.288-33.288 0-8.664 3.31-16.555 8.734-22.477l-0.023 0.025 105.654-115.715c6.107-6.672 14.855-10.84 24.577-10.84s18.469 4.168 24.554 10.815l0.023 0.025 207.365 227.206c5.402 5.897 8.711 13.788 8.711 22.452 0 18.384-14.904 33.288-33.288 33.288-9.721 0-18.468-4.167-24.554-10.811l-0.023-0.025z" />
<glyph unicode="&#xe926;" glyph-name="document-upload" horiz-adv-x="814" d="M416.164 569.411c-2.133 2.704-5.41 4.425-9.088 4.425s-6.955-1.72-9.070-4.4l-0.019-0.024-148.893-189.982c-1.53-1.94-2.454-4.421-2.454-7.117 0-6.375 5.167-11.544 11.542-11.546h96.079c6.377 0 11.546-5.169 11.546-11.546v0-170.782c0-0.008 0-0.017 0-0.026 0-6.348 5.146-11.495 11.495-11.495 0.009 0 0.018 0 0.027 0h59.495c0.008 0 0.017 0 0.026 0 6.348 0 11.495 5.146 11.495 11.495 0 0.009 0 0.018 0 0.027v-0.001 170.782c0 6.377 5.169 11.546 11.546 11.546v0h96.079c6.375 0.002 11.543 5.17 11.543 11.546 0 2.696-0.924 5.177-2.473 7.142l0.019-0.025zM798.638 742.241l-202.245 202.245c-9.527 9.492-22.67 15.361-37.184 15.361-0.086 0-0.172 0-0.257-0.001h-505.984c-29.233-0.015-52.928-23.709-52.942-52.941v-917.963c0.015-29.233 23.709-52.928 52.941-52.942h708.294c29.233 0.015 52.928 23.709 52.942 52.941v715.846c0 0.045 0 0.098 0 0.151 0 14.589-5.952 27.787-15.561 37.299l-0.004 0.004zM723.474 723.322h-141.802v141.674zM66.536 2.536v890.902h448.6v-181.611c0-0.038 0-0.083 0-0.129 0-30.266 24.463-54.819 54.695-54.964h177.785v-654.224z" />
<glyph unicode="&#xe927;" glyph-name="document-write" horiz-adv-x="1017" d="M1016.832 672.3c0 0.041 0 0.090 0 0.139 0 15.677-6.382 29.863-16.689 40.102l-87.557 87.557c-10.451 9.982-24.643 16.126-40.27 16.126s-29.819-6.144-40.292-16.147l0.022 0.021-17.92-17.92v124.829c-0.015 29.233-23.709 52.928-52.941 52.942h-505.998c-0.096 0.001-0.21 0.001-0.324 0.001-14.481 0-27.59-5.87-37.079-15.361l-202.245-202.245c-9.492-9.531-15.361-22.677-15.361-37.194 0-0.064 0-0.128 0-0.192v0.010-716.024c0.015-29.233 23.709-52.928 52.941-52.942h708.243c29.233 0.015 52.928 23.709 52.942 52.941v451.391c-0.209 1.776-0.542 3.372-0.999 4.915l0.052-0.205 186.885 186.885c10.25 10.237 16.59 24.385 16.59 40.015 0 0.126 0 0.251-0.001 0.377v-0.019zM213.765 846.384v-100.175h-100.175zM747.59 2.536h-680.977v677.137h160.849c29.227 0.029 52.913 23.715 52.942 52.939v160.852h467.263v-177.796l-126.826-126.826h-457.637c-18.38 0-33.281-14.9-33.281-33.281s14.9-33.281 33.281-33.281h391.075l-81.666-81.666h-309.409c-18.38 0-33.281-14.9-33.281-33.281s14.9-33.281 33.281-33.281h242.848l-33.46-33.46c-2.702-2.701-5.131-5.675-7.242-8.877l-0.131-0.211c-3.071-3.232-5.502-7.105-7.069-11.393l-0.073-0.229-9.6-27.469h-185.272c-18.38 0-33.281-14.9-33.281-33.281s14.9-33.281 33.281-33.281h162.001l-25.831-73.909c-1.134-3.58-1.787-7.697-1.787-11.967 0-11.326 4.597-21.578 12.027-28.993l0.001-0.001c7.353-7.431 17.554-12.033 28.829-12.033 0.089 0 0.178 0 0.267 0.001h-0.014c4.65 0.009 9.132 0.71 13.355 2.006l-0.324-0.086 165.867 56.117c4.457 1.538 8.294 3.832 11.551 6.76l-0.030-0.027c4.447 2.552 8.286 5.462 11.713 8.794l206.943 206.943zM398.525 234.068l35.15-35.15-53.761-18.228zM500.365 226.388l-73.986 73.96 445.861 445.886 74.011-74.011z" />
<glyph unicode="&#xe928;" glyph-name="document" horiz-adv-x="814" d="M798.638 742.241l-202.245 202.245c-9.527 9.492-22.67 15.361-37.184 15.361-0.086 0-0.172 0-0.257-0.001h-505.984c-29.233-0.015-52.928-23.709-52.942-52.941v-917.963c0.015-29.233 23.709-52.928 52.941-52.942h708.294c29.233 0.015 52.928 23.709 52.942 52.941v715.846c0 0.045 0 0.098 0 0.151 0 14.589-5.952 27.787-15.561 37.299l-0.004 0.004zM723.474 723.322h-141.802v141.674zM66.536 2.536v890.902h448.6v-181.611c0-0.038 0-0.083 0-0.129 0-30.266 24.463-54.819 54.695-54.964h177.785v-654.224z" />
<glyph unicode="&#xe929;" glyph-name="dots-horizontal" d="M614.374 448c0-56.554-45.846-102.4-102.4-102.4s-102.4 45.846-102.4 102.4c0 56.554 45.846 102.4 102.4 102.4s102.4-45.846 102.4-102.4zM1023.974 448c0-56.554-45.846-102.4-102.4-102.4s-102.4 45.846-102.4 102.4c0 56.554 45.846 102.4 102.4 102.4s102.4-45.846 102.4-102.4zM204.774 448c0-56.554-45.846-102.4-102.4-102.4s-102.4 45.846-102.4 102.4c0 56.554 45.846 102.4 102.4 102.4s102.4-45.846 102.4-102.4z" />
<glyph unicode="&#xe92a;" glyph-name="dots-vertical" horiz-adv-x="512" d="M358.374 448c0-56.554-45.846-102.4-102.4-102.4s-102.4 45.846-102.4 102.4c0 56.554 45.846 102.4 102.4 102.4s102.4-45.846 102.4-102.4zM358.374 38.4c0-56.554-45.846-102.4-102.4-102.4s-102.4 45.846-102.4 102.4c0 56.554 45.846 102.4 102.4 102.4s102.4-45.846 102.4-102.4zM358.374 857.6c0-56.554-45.846-102.4-102.4-102.4s-102.4 45.846-102.4 102.4c0 56.554 45.846 102.4 102.4 102.4s102.4-45.846 102.4-102.4z" />
<glyph unicode="&#xe92b;" glyph-name="down-solid" horiz-adv-x="768" d="M728.346 707.354h-688.307c-0.009 0-0.020 0-0.030 0-21.957 0-39.757-17.8-39.757-39.757 0-9.43 3.283-18.093 8.769-24.909l-0.060 0.077 351.13-439.219c7.347-9.136 18.524-14.934 31.055-14.934 12.806 0 24.197 6.054 31.469 15.457l0.068 0.092 337.203 439.219c5.132 6.629 8.227 15.062 8.227 24.218 0 21.957-17.8 39.757-39.757 39.757-0.003 0-0.007 0-0.010 0h0.001z" />
<glyph unicode="&#xe92c;" glyph-name="down" d="M511.974 172.8c-0.009 0-0.019 0-0.030 0-10.592 0-20.179 4.306-27.105 11.263l-473.601 473.601c-6.669 6.898-10.779 16.308-10.779 26.677 0 21.208 17.192 38.4 38.4 38.4 10.369 0 19.779-4.11 26.688-10.79l-0.011 0.010 446.438-446.438 446.464 446.438c6.898 6.669 16.308 10.779 26.677 10.779 21.208 0 38.4-17.192 38.4-38.4 0-10.369-4.11-19.779-10.79-26.688l0.010 0.011-473.6-473.6c-6.949-6.957-16.552-11.262-27.161-11.264h-0.001z" />
<glyph unicode="&#xe92d;" glyph-name="download" horiz-adv-x="953" d="M919.424 246.912c-18.38 0-33.28-14.9-33.28-33.28v0-211.098h-819.61v211.098c0 18.38-14.9 33.28-33.28 33.28s-33.28-14.9-33.28-33.28v0-244.378c0-18.38 14.9-33.28 33.28-33.28v0h886.17c18.38 0 33.28 14.9 33.28 33.28v244.378c0 18.38-14.9 33.28-33.28 33.28v0zM456.064 131.149c6.022-6.019 14.339-9.741 23.526-9.741s17.505 3.723 23.527 9.742l313.6 313.574c6.483 6.087 10.521 14.713 10.521 24.281 0 18.38-14.9 33.28-33.28 33.28-9.575 0-18.205-4.043-24.277-10.516l-0.017-0.018-256.794-256.742v691.712c0 18.38-14.9 33.28-33.28 33.28s-33.28-14.9-33.28-33.28v0-691.712l-263.296 263.27c-6.071 6.346-14.606 10.29-24.063 10.29-18.38 0-33.28-14.9-33.28-33.28 0-9.457 3.944-17.992 10.278-24.051l0.012-0.012z" />
<glyph unicode="&#xe92e;" glyph-name="dryer" horiz-adv-x="1003" d="M929.552 892.153c-43.233 42.022-102.319 67.934-167.456 67.934-3.119 0-6.224-0.059-9.314-0.177l0.445 0.013-665.334-51.743c-48.825-1.272-87.92-41.155-87.92-90.169 0-0.145 0-0.29 0.001-0.435v0.022-228.016c-0.001-0.123-0.001-0.268-0.001-0.413 0-49.014 39.095-88.897 87.803-90.167l0.118-0.002 461.512-13.774-77.934-414.377c-1.243-6.314-1.954-13.575-1.954-21.001 0-57.342 42.401-104.781 97.56-112.675l0.608-0.071c4.789-0.701 10.318-1.101 15.94-1.101 0.013 0 0.025 0 0.038 0h-0.002c59.062 0.213 107.511 45.363 112.949 103.030l0.035 0.455 41.527 440.108 16.616-0.486c2.56 0 4.967 0 7.425 0 132.767 0.103 240.356 107.755 240.356 240.536 0 67.689-27.959 128.847-72.959 172.556l-0.058 0.056zM630.361 45.579c-2.286-24.161-22.472-42.915-47.039-42.915-26.088 0-47.237 21.149-47.237 47.237 0 3.062 0.291 6.055 0.848 8.955l-0.047-0.296 79.88 424.67 54.738-1.639zM883.186 594.703c-30.756-30.403-73.057-49.184-119.744-49.184-2.332 0-4.652 0.047-6.961 0.14l0.331-0.011-666.844 19.893c-12.959 0.301-23.35 10.878-23.35 23.881 0 0.047 0 0.094 0 0.141v-0.007 228.016c0.156 13.37 11.031 24.149 24.423 24.149 0.181 0 0.361-0.002 0.54-0.006h-0.027l665.334 51.717c1.767 0 3.533 0 5.325 0 95.989-0.215 173.72-78.078 173.72-174.097 0-48.905-20.164-93.1-52.633-124.725l-0.038-0.037zM778.343 821.567c-0.008 0-0.017 0-0.026 0-56.305 0-101.949-45.644-101.949-101.949s45.644-101.949 101.949-101.949c56.305 0 101.949 45.644 101.949 101.949v0c0 56.296-45.63 101.935-101.922 101.949h-0.001z" />
<glyph unicode="&#xe92f;" glyph-name="edit" d="M1024 811.443c-0.003 9.189-3.73 17.506-9.753 23.526v0l-115.584 115.635c-6.114 5.812-14.403 9.387-23.526 9.387s-17.412-3.575-23.541-9.4l0.015 0.014-476.774-476.979c-0.477-0.627-0.967-1.345-1.42-2.088l-0.065-0.114c-1.289-1.579-2.477-3.348-3.495-5.222l-0.089-0.18c-1.047-1.747-1.99-3.768-2.721-5.888l-0.069-0.23c-0.256-0.845-0.845-1.459-1.050-2.33l-34.662-150.323c-0.54-2.246-0.85-4.824-0.85-7.475 0-18.373 14.889-33.269 33.259-33.28h0.001c0.046 0 0.1 0 0.154 0 2.606 0 5.14 0.308 7.568 0.89l-0.22-0.045 150.246 34.714c0.87 0.205 1.51 0.794 2.355 1.075 2.292 0.771 4.263 1.681 6.115 2.77l-0.151-0.082c2.141 1.128 3.987 2.377 5.68 3.802l-0.048-0.039c0.64 0.538 1.459 0.768 2.074 1.382l476.8 476.928c6.026 6.023 9.754 14.346 9.754 23.539 0 0.005 0 0.009 0 0.014v-0.001zM875.136 879.974l68.506-68.531-23.731-23.757-68.531 68.557zM804.352 809.165l68.506-68.531-358.963-359.091-68.48 68.531zM417.254 384.205l30.72-30.72-39.885-9.216zM876.416 398.029c-18.38 0-33.28-14.9-33.28-33.28v0l-0.486-362.189-776.115 0.512 0.486 776.371h361.549c18.38 0 33.28 14.9 33.28 33.28s-14.9 33.28-33.28 33.28v0h-361.549c-37.005-0.058-66.988-30.041-67.046-67.041v-775.916c0.029-37.022 30.026-67.028 67.042-67.072h775.684c37.009 0.058 66.992 30.059 67.021 67.069v361.705c0 18.38-14.9 33.28-33.28 33.28-0.009 0-0.018 0-0.027 0h0.001z" />
<glyph unicode="&#xe930;" glyph-name="export" d="M920.090 715.008h-398.285v172.032c0 0.027 0 0.059 0 0.091 0 12.725-10.315 23.040-23.040 23.040-4.504 0-8.706-1.292-12.256-3.526l0.096 0.056-392.243-278.528c-6.658-4.118-11.028-11.379-11.028-19.661s4.37-15.543 10.929-19.604l0.099-0.057 392.243-278.554c3.454-2.178 7.656-3.47 12.16-3.47 12.725 0 23.040 10.315 23.040 23.040 0 0.032 0 0.064 0 0.096v-0.005 172.032h398.285c11.311 0 20.48 9.169 20.48 20.48v0 171.93c0 0.038 0 0.083 0 0.128 0 11.311-9.169 20.48-20.48 20.48 0 0 0 0 0 0v0zM990.72-14.157h-957.44c-18.38 0-33.28 14.9-33.28 33.28v0 189.926c0 18.38 14.9 33.28 33.28 33.28s33.28-14.9 33.28-33.28v-156.646h890.88v156.646c0 18.38 14.9 33.28 33.28 33.28s33.28-14.9 33.28-33.28v-189.926c0-18.38-14.9-33.28-33.28-33.28v0z" />
<glyph unicode="&#xe931;" glyph-name="first" horiz-adv-x="845" d="M511.974-64c-0.009 0-0.019 0-0.030 0-10.592 0-20.179 4.306-27.105 11.263l-473.601 473.601c-6.947 6.949-11.243 16.547-11.243 27.149s4.296 20.2 11.243 27.149l473.6 473.6c6.898 6.669 16.308 10.779 26.677 10.779 21.208 0 38.4-17.192 38.4-38.4 0-10.369-4.11-19.779-10.79-26.688l0.010 0.011-446.464-446.464 446.464-446.438c6.954-6.95 11.256-16.553 11.256-27.162 0-21.208-17.192-38.4-38.4-38.4-0.006 0-0.012 0-0.018 0h0.001zM806.374-64c-0.009 0-0.019 0-0.030 0-10.592 0-20.179 4.306-27.105 11.263l-473.601 473.601c-6.947 6.949-11.243 16.547-11.243 27.149s4.296 20.2 11.243 27.149l473.6 473.6c6.898 6.669 16.308 10.779 26.677 10.779 21.208 0 38.4-17.192 38.4-38.4 0-10.369-4.11-19.779-10.79-26.688l0.010 0.011-446.464-446.464 446.464-446.438c6.954-6.95 11.256-16.553 11.256-27.162 0-21.208-17.192-38.4-38.4-38.4-0.006 0-0.012 0-0.018 0h0.001z" />
<glyph unicode="&#xe932;" glyph-name="focus" d="M927.258 318.643h-84.864c-18.38 0-33.28 14.9-33.28 33.28s14.9 33.28 33.28 33.28v0h84.864c16.624 0.562 29.887 14.173 29.887 30.883 0 0.303-0.004 0.605-0.013 0.906l0.001-0.044v444.723c0.008 0.257 0.012 0.559 0.012 0.862 0 16.714-13.26 30.332-29.835 30.906l-0.053 0.001h-830.797c-16.624-0.561-29.888-14.173-29.888-30.883 0-0.312 0.005-0.623 0.014-0.932l-0.001 0.045v-444.698c-0.008-0.264-0.013-0.575-0.013-0.886 0-16.704 13.266-30.31 29.838-30.857l0.050-0.001h154.24c18.38 0 33.28-14.9 33.28-33.28s-14.9-33.28-33.28-33.28v0h-154.24c-53.388 0.591-96.439 44.008-96.439 97.479 0 0.29 0.001 0.58 0.004 0.869v-0.044 444.698c-0.002 0.253-0.004 0.551-0.004 0.85 0 53.472 43.051 96.888 96.383 97.479h830.853c53.377-0.605 96.413-44.016 96.413-97.479 0-0.299-0.001-0.598-0.004-0.896v0.046-444.698c0.002-0.253 0.004-0.552 0.004-0.851 0-53.463-43.037-96.873-96.356-97.478l-0.057-0.001zM553.958-64c-0.004 0-0.008 0-0.012 0-16.015 0-29.387 11.312-32.564 26.381l-0.038 0.217-45.107 220.8-97.28-63.411c-5.13-3.395-11.428-5.416-18.197-5.416-18.38 0-33.28 14.9-33.28 33.28 0 2.426 0.259 4.79 0.752 7.069l-0.040-0.219 106.342 506.88c3.273 15.213 16.61 26.45 32.572 26.45 11.197 0 21.103-5.53 27.135-14.008l0.069-0.102 295.629-419.686c3.805-5.338 6.084-11.994 6.084-19.181 0-18.38-14.9-33.28-33.28-33.28-1.795 0-3.557 0.142-5.275 0.416l0.19-0.025-114.586 17.766 45.363-221.824c0.431-2.009 0.678-4.318 0.678-6.684 0-15.9-11.15-29.195-26.057-32.494l-0.221-0.041-101.837-22.067c-2.108-0.501-4.534-0.798-7.026-0.819h-0.014zM499.021 271.36c0.004 0 0.008 0 0.012 0 16.015 0 29.387-11.312 32.564-26.381l0.038-0.217 48.154-235.75 36.787 7.987-48.333 236.493c-0.432 2.012-0.68 4.323-0.68 6.692 0 18.38 14.9 33.28 33.28 33.28 1.803 0 3.573-0.143 5.299-0.419l-0.19 0.025 84.48-13.107-206.49 293.094-74.24-353.28 71.066 46.31c5.047 3.246 11.209 5.174 17.822 5.174 0.152 0 0.303-0.001 0.454-0.003h-0.023z" />
<glyph unicode="&#xe933;" glyph-name="folder" d="M948.557 18.202h-873.114c-41.648 0.044-75.399 33.795-75.443 75.439v708.74c0.044 41.648 33.795 75.399 75.439 75.443h201.067c25.335-0.028 47.746-12.518 61.438-31.669l0.156-0.229 59.034-83.507c1.634-2.288 4.28-3.762 7.27-3.763h544.154c41.648-0.044 75.399-33.795 75.443-75.439v-589.572c-0.044-41.648-33.795-75.399-75.439-75.443h-0.004zM75.443 811.238c-4.9-0.015-8.869-3.983-8.883-8.882v-708.737c0.014-4.905 3.98-8.88 8.88-8.909h873.117c4.909 0.029 8.88 4 8.909 8.906v589.622c-0.015 4.914-3.994 8.894-8.907 8.909h-544.155c-25.36 0.007-47.798 12.513-61.489 31.693l-0.156 0.23-59.008 83.482c-1.636 2.268-4.269 3.73-7.244 3.738h-0.001z" />
<glyph unicode="&#xe934;" glyph-name="folders" d="M955.571 792.218l-454.963 0.768-49.203 69.606c-12.557 17.589-32.897 28.922-55.884 28.928h-167.527c-37.764-0.058-68.36-30.663-68.403-68.425v-91.14h-91.162c-37.769-0.058-68.371-30.66-68.429-68.423v-590.624c0.058-37.764 30.663-68.36 68.425-68.403h727.582c37.766 0.044 68.371 30.64 68.429 68.398v91.168h91.136c37.775 0.044 68.385 30.654 68.429 68.425v491.294c-0.044 37.775-30.654 68.385-68.425 68.429h-0.004zM797.875 72.858c0-1.032-0.837-1.869-1.869-1.869h-727.578c-1.032 0-1.869 0.837-1.869 1.869v0 590.669c0 1.032 0.837 1.869 1.869 1.869v0l168.96-0.768 49.203-69.606c12.562-17.583 32.899-28.913 55.882-28.928h453.455c0.008 0 0.017 0 0.026 0 1.018 0 1.843-0.825 1.843-1.843 0-0.009 0-0.018 0-0.027v0.001zM957.466 232.448c-0.014-1.035-0.857-1.869-1.894-1.869 0 0 0 0 0 0h-91.136v333.645c-0.058 37.769-30.66 68.371-68.423 68.429l-454.994 0.768-49.152 69.581c-12.562 17.6-32.911 28.941-55.908 28.954h-9.833v91.136c0 0.008 0 0.017 0 0.026 0 1.018 0.825 1.843 1.843 1.843 0.009 0 0.018 0 0.027 0h-0.001l168.96-0.768 49.178-69.581c12.547-17.606 32.89-28.95 55.884-28.954h453.453c0 0 0 0 0 0 1.037 0 1.88-0.834 1.894-1.867v-0.001z" />
<glyph unicode="&#xe935;" glyph-name="graph-pie" d="M447.539-64c-247.155 0-447.514 200.359-447.514 447.514s200.359 447.514 447.514 447.514v0c14.138 0 25.6-11.462 25.6-25.6v0-396.314h396.314c14.138 0 25.6-11.462 25.6-25.6v0c-0.277-247.044-200.47-447.237-447.488-447.514h-0.026zM421.939 779.008c-207.577-13.85-370.705-185.618-370.705-395.485 0-218.878 177.436-396.314 396.314-396.314 209.867 0 381.635 163.127 395.421 369.502l0.064 1.202h-395.494c-14.138 0-25.6 11.462-25.6 25.6v0zM998.4 486.912h-421.914c-14.138 0-25.6 11.462-25.6 25.6v0 421.888c0 14.138 11.462 25.6 25.6 25.6v0c247.053-0.277 447.251-200.485 447.514-447.514v-0.025c-0.029-14.116-11.479-25.549-25.6-25.549 0 0 0 0 0 0v0zM602.086 538.112h369.894c-13.521 198.611-171.283 356.373-368.671 369.828l-1.224 0.067z" />
<glyph unicode="&#xe936;" glyph-name="graph" d="M990.72 2.534h-924.16v924.16c0 18.38-14.9 33.28-33.28 33.28s-33.28-14.9-33.28-33.28v-957.44c0-18.38 14.9-33.28 33.28-33.28v0h957.44c18.38 0 33.28 14.9 33.28 33.28s-14.9 33.28-33.28 33.28v0zM180.352 210.79c9.189 0.003 17.506 3.73 23.526 9.753l216.627 216.576 159.667-159.667c6.022-6.019 14.339-9.741 23.526-9.741s17.505 3.723 23.527 9.742l294.118 294.144v-54.784c0-18.38 14.9-33.28 33.28-33.28s33.28 14.9 33.28 33.28v135.219c0 13.761-8.351 25.57-20.262 30.638l-0.218 0.082c-3.781 1.619-8.181 2.56-12.8 2.56v0h-135.219c-18.38 0-33.28-14.9-33.28-33.28s14.9-33.28 33.28-33.28v0h54.886l-270.592-270.592-159.667 159.667c-6.022 6.019-14.339 9.741-23.526 9.741s-17.505-3.723-23.527-9.742l-240.153-240.128c-6.019-6.022-9.741-14.339-9.741-23.526 0-18.376 14.893-33.273 33.267-33.28h0.001z" />
<glyph unicode="&#xe937;" glyph-name="hanger" d="M1004.954 236.365l-377.19 231.347-17.51 47.59c-7.752 20.548-27.228 34.91-50.066 34.97h-17.466v28.16c42.256 13.497 72.32 52.414 72.32 98.354 0 56.907-46.133 103.040-103.040 103.040-56.898 0-103.025-46.117-103.040-103.012v-0.002c0-16.966 13.754-30.72 30.72-30.72s30.72 13.754 30.72 30.72v0c0 22.975 18.625 41.6 41.6 41.6s41.6-18.625 41.6-41.6c0-22.975-18.625-41.6-41.6-41.6v0c-16.966 0-30.72-13.754-30.72-30.72v0-54.118h-17.434c-22.845-0.060-42.321-14.421-49.951-34.601l-0.122-0.368-17.485-47.59-377.139-231.296c-11.525-7.157-19.097-19.725-19.149-34.066v-46.088c0.047-22.048 17.932-39.904 39.987-39.904 7.021 0 13.619 1.809 19.354 4.987l-0.205-0.104 53.76 29.414h798.413l53.76-29.389c5.547-3.109 12.172-4.94 19.226-4.94 22.028 0 39.885 17.857 39.885 39.885 0 0.018 0 0.035 0 0.053v-0.003 46.080c-0.131 14.302-7.716 26.803-19.054 33.821l-0.172 0.099zM437.478 420.941c5.85 3.615 10.32 8.978 12.73 15.353l0.070 0.211 19.226 52.301h85.069l19.226-52.301c2.48-6.586 6.95-11.95 12.668-15.489l0.132-0.076 342.605-210.15-402.381 220.544c-4.263 2.382-9.353 3.784-14.771 3.784s-10.508-1.403-14.928-3.864l0.156 0.080-402.15-220.416zM224.998 212.019l287.078 157.338 287.104-157.338z" />
<glyph unicode="&#xe938;" glyph-name="heart-solid" d="M748.672 901.709c-96.358 0-187.059-63.002-236.672-156.416-49.587 93.414-140.288 156.416-236.672 156.416-151.834 0-275.328-131.098-275.328-292.224 0-374.733 477.568-602.547 497.894-612.070 4.126-1.973 8.969-3.125 14.080-3.125s9.954 1.152 14.281 3.211l-0.201-0.086c20.326 9.523 497.894 237.338 497.894 612.070 0.051 161.126-123.443 292.224-275.277 292.224z" />
<glyph unicode="&#xe939;" glyph-name="heart" d="M512-5.709c-5.12 0.004-9.97 1.155-14.309 3.21l0.204-0.087c-20.326 9.523-497.894 237.338-497.894 612.070 0 161.126 123.494 292.224 275.328 292.224 96.384 0 187.085-63.002 236.672-156.416 49.613 93.414 140.314 156.416 236.672 156.416 151.834 0 275.328-131.098 275.328-292.224 0-374.733-477.568-602.547-497.894-612.070-4.135-1.97-8.986-3.122-14.105-3.123h-0.001zM275.328 835.149c-115.2 0-208.768-101.222-208.768-225.664 0-299.52 368.077-504.858 445.44-544.717 77.338 39.936 445.44 245.76 445.44 544.717 0 124.442-93.67 225.664-208.794 225.664-103.501 0-185.011-98.918-204.006-194.56-3.115-15.41-16.548-26.849-32.653-26.849s-29.538 11.439-32.617 26.636l-0.036 0.214c-18.97 95.642-100.506 194.56-204.006 194.56z" />
<glyph unicode="&#xe93a;" glyph-name="hide" horiz-adv-x="1031" d="M1024.742 461.568c-91.753 178.142-274.391 297.866-484.991 297.866-5.041 0-10.066-0.069-15.074-0.205l0.737 0.016c-1.346 0.011-2.938 0.017-4.531 0.017-81.326 0-158.897-16.079-229.707-45.232l4.017 1.464-132.224 132.224c-5.964 5.705-14.067 9.217-22.99 9.217-18.38 0-33.28-14.9-33.28-33.28 0-8.923 3.512-17.026 9.229-23.002l115.802-115.802c-94.029-53.222-170.069-128.368-222.843-218.759l-1.515-2.809-7.373-14.234 6.528-14.618c91.749-178.156 274.394-297.891 485.004-297.891 5.037 0 10.058 0.068 15.062 0.205l-0.738-0.016c1.351-0.011 2.948-0.017 4.547-0.017 81.33 0 158.904 16.079 229.718 45.232l-4.018-1.464 132.198-132.198c6.071-6.346 14.606-10.29 24.063-10.29 18.38 0 33.28 14.9 33.28 33.28 0 9.457-3.944 17.992-10.278 24.051l-115.801 115.801c94.019 53.246 170.055 128.397 222.843 218.784l1.516 2.81 7.373 14.234zM505.856 203.264c-3.948-0.117-8.593-0.183-13.253-0.183-178.244 0-333.793 97.17-416.563 241.428l-1.237 2.339c51.958 79.458 121.717 143.208 203.871 186.648l2.977 1.435 88.448-88.448c-18.931-27.619-30.233-61.762-30.233-98.544 0-97.047 78.672-175.718 175.718-175.718 36.789 0 70.937 11.306 99.16 30.632l-0.601-0.389 69.734-69.76c-52.299-18.661-112.63-29.446-175.48-29.446-0.894 0-1.787 0.002-2.68 0.007l0.137-0.001zM565.325 351.258c-14.397-7.771-31.489-12.389-49.65-12.518h-0.040c-60.309 0.073-109.177 48.95-109.235 109.255v0.006c0.122 18.197 4.732 35.291 12.775 50.265l-0.283-0.576zM465.946 544.742c14.398 7.763 31.492 12.373 49.653 12.493h0.037c60.311-0.058 109.188-48.927 109.261-109.228v-0.007c-0.128-18.2-4.747-35.293-12.801-50.264l0.282 0.574zM749.619 261.043l-88.448 88.474c18.961 27.631 30.282 61.798 30.282 98.608 0 97.032-78.66 175.693-175.693 175.693-36.81 0-70.977-11.32-99.207-30.67l0.6 0.388-69.734 69.734c52.264 18.645 112.554 29.421 175.36 29.421 0.927 0 1.853-0.002 2.779-0.007l-0.142 0.001c3.961 0.117 8.621 0.184 13.296 0.184 178.219 0 333.748-97.148 416.519-241.378l1.237-2.339c-51.956-79.467-121.716-143.226-203.872-186.674l-2.976-1.435z" />
<glyph unicode="&#xe93b;" glyph-name="home-2" d="M1013.811 467.226l-480.64 462.259c-7.627 7.659-18.181 12.399-29.842 12.399-11.353 0-21.656-4.492-29.23-11.797l0.013 0.012-463.77-441.062c-6.386-6.076-10.357-14.638-10.357-24.128 0-18.381 14.901-33.282 33.282-33.282 8.891 0 16.969 3.487 22.939 9.167l-0.014-0.013 39.578 37.658v-441.83c0.058-45.54 36.967-82.439 82.505-82.483h164.817c40.32 0.044 72.993 32.717 73.037 73.033v273.412h183.066v-273.408c0.058-40.323 32.738-72.993 73.058-73.037h164.817c45.537 0.044 82.44 36.947 82.483 82.479v429.009l48.102-46.285c5.839-5.177 13.567-8.339 22.034-8.339 18.38 0 33.28 14.9 33.28 33.28 0 8.932-3.519 17.042-9.246 23.020l0.011-0.012zM852.992 36.608c0 0 0 0 0 0 0-8.799-7.126-15.934-15.922-15.949h-164.814c-3.591 0-6.502 2.911-6.502 6.502v286.72c-0.029 29.354-23.817 53.142-53.168 53.171h-209.769c-29.37-0.015-53.179-23.805-53.222-53.167v-286.724c0 0 0 0 0 0 0-3.582-2.897-6.488-6.475-6.502h-164.814c-8.808 0-15.949 7.141-15.949 15.949v0 501.939h-3.354l344.269 327.424 349.747-336.41z" />
<glyph unicode="&#xe93c;" glyph-name="home-solid" d="M1013.811 433.946l-480.64 462.234c-7.627 7.659-18.181 12.399-29.842 12.399-11.353 0-21.656-4.492-29.23-11.797l0.013 0.012-463.77-441.088c-6.089-6.033-9.859-14.398-9.859-23.643 0-18.38 14.9-33.28 33.28-33.28 8.653 0 16.535 3.302 22.454 8.716l-0.025-0.023 84.198 80.077v-421.299c-0.004-0.291-0.006-0.636-0.006-0.98 0-42.633 34.259-77.265 76.75-77.867l0.057-0.001h145.382c37.868 0.546 68.357 31.371 68.357 69.318 0 0.281-0.002 0.562-0.005 0.843v-0.043 250.726h153.6v-250.726c-0.003-0.238-0.005-0.519-0.005-0.8 0-37.947 30.488-68.772 68.305-69.317l0.051-0.001h145.408c42.547 0.603 76.806 35.234 76.806 77.868 0 0.345-0.002 0.689-0.007 1.032l0.001-0.052v408.909l92.698-89.165c6.069-6.335 14.598-10.272 24.046-10.272 18.38 0 33.28 14.9 33.28 33.28 0 9.913-4.334 18.814-11.211 24.911l-0.035 0.030z" />
<glyph unicode="&#xe93d;" glyph-name="home" d="M1013.811 445.696l-480.435 462.157c-7.606 7.699-18.164 12.467-29.835 12.467-0.005 0-0.010 0-0.015 0h0.001c-0.097 0.001-0.211 0.001-0.326 0.001-11.254 0-21.459-4.494-28.917-11.785l0.008 0.008-463.77-441.062c-6.386-6.076-10.357-14.638-10.357-24.128 0-18.381 14.901-33.282 33.282-33.282 8.891 0 16.969 3.487 22.939 9.167l-0.014-0.013 82.688 78.643v-482.816c0.029-21.747 17.651-39.369 39.396-39.398h658.793c21.648 0.159 39.14 17.732 39.168 39.396v470.377l91.187-87.68c6.069-6.335 14.598-10.272 24.046-10.272 18.38 0 33.28 14.9 33.28 33.28 0 9.913-4.334 18.814-11.211 24.911l-0.035 0.030zM590.925 42.214h-166.4v264.678h166.4zM809.933 42.214h-152.448v297.958c0 18.38-14.9 33.28-33.28 33.28v0h-232.96c-18.38 0-33.28-14.9-33.28-33.28v-297.933h-152.448v518.938l297.779 283.238 306.714-294.989z" />
<glyph unicode="&#xe93e;" glyph-name="image" d="M939.52 960h-855.040c-46.657 0-84.48-37.823-84.48-84.48v0-855.040c0-46.657 37.823-84.48 84.48-84.48v0h855.040c46.657 0 84.48 37.823 84.48 84.48v0 855.040c0 46.657-37.823 84.48-84.48 84.48v0zM66.56 20.48v855.040c0 9.897 8.023 17.92 17.92 17.92v0h855.040c9.897 0 17.92-8.023 17.92-17.92v0-356.352l-210.33 175.846c-8.159 6.855-18.778 11.019-30.369 11.019-15.14 0-28.621-7.104-37.29-18.161l-0.078-0.103-533.274-685.235h-61.645c-9.886 0.015-17.894 8.032-17.894 17.92 0 0 0 0 0 0v0zM939.52 2.56h-709.12l489.19 628.634 237.747-198.733v-411.981c0-0.008 0-0.017 0-0.026 0-9.861-7.965-17.862-17.812-17.92h-0.006zM313.83 472.883c0.008 0 0.017 0 0.026 0 102.009 0 184.704 82.695 184.704 184.704s-82.695 184.704-184.704 184.704c-102.009 0-184.704-82.695-184.704-184.704v0c0.131-101.947 82.733-184.558 184.664-184.704h0.014zM313.83 775.706c0.008 0 0.017 0 0.026 0 65.249 0 118.144-52.895 118.144-118.144s-52.895-118.144-118.144-118.144c-65.249 0-118.144 52.895-118.144 118.144 0 0.009 0 0.018 0 0.027v-0.001c0.087 65.2 52.919 118.031 118.11 118.118h0.008z" />
<glyph unicode="&#xe93f;" glyph-name="import" d="M103.91 501.99h398.285v-172.032c0-0.027 0-0.059 0-0.091 0-12.725 10.315-23.040 23.040-23.040 4.504 0 8.706 1.292 12.256 3.526l-0.096-0.056 392.243 278.502c6.646 4.12 11.007 11.375 11.007 19.648s-4.36 15.528-10.909 19.591l-0.098 0.057-392.243 278.502c-3.454 2.178-7.656 3.47-12.16 3.47-12.725 0-23.040-10.315-23.040-23.040 0-0.032 0-0.064 0-0.096v0.005-172.006h-398.285c-11.311 0-20.48-9.169-20.48-20.48v-171.904c0-0.023 0-0.050 0-0.077 0-11.311 9.169-20.48 20.48-20.48 0 0 0 0 0 0v0zM990.72-14.080h-957.44c-18.38 0-33.28 14.9-33.28 33.28v0 189.875c0 18.38 14.9 33.28 33.28 33.28s33.28-14.9 33.28-33.28v-156.595h890.88v156.595c0 18.38 14.9 33.28 33.28 33.28s33.28-14.9 33.28-33.28v-189.875c0-18.38-14.9-33.28-33.28-33.28v0z" />
<glyph unicode="&#xe940;" glyph-name="info" d="M509.85 115.866c-18.38 0-33.28 14.9-33.28 33.28v0 388.685c0 18.38 14.9 33.28 33.28 33.28s33.28-14.9 33.28-33.28v0-388.685c0-18.38-14.9-33.28-33.28-33.28v0zM571.315 687.539c0-32.759-26.556-59.315-59.315-59.315s-59.315 26.556-59.315 59.315c0 32.759 26.556 59.315 59.315 59.315s59.315-26.556 59.315-59.315zM512-63.949c-282.77 0-512 229.23-512 512s229.23 512 512 512c282.77 0 512-229.23 512-512v0c-0.335-282.635-229.365-511.665-511.968-512h-0.032zM512 893.491c-246.010 0-445.44-199.43-445.44-445.44s199.43-445.44 445.44-445.44c246.010 0 445.44 199.43 445.44 445.44v0c-0.277 245.899-199.542 445.164-445.414 445.44h-0.026z" />
<glyph unicode="&#xe941;" glyph-name="input" d="M990.72 87.91h-957.44c-18.38 0-33.28 14.9-33.28 33.28v0 653.619c0 18.38 14.9 33.28 33.28 33.28h957.44c18.38 0 33.28-14.9 33.28-33.28v0-653.619c0-18.38-14.9-33.28-33.28-33.28v0zM66.56 154.47h890.88v587.085h-890.88zM221.056 250.035c-18.38 0-33.28 14.9-33.28 33.28v0 329.37c0 18.38 14.9 33.28 33.28 33.28s33.28-14.9 33.28-33.28v-329.37c0-18.38-14.9-33.28-33.28-33.28v0z" />
<glyph unicode="&#xe942;" glyph-name="kitchen" d="M568.129 761.032c-1.37 17.246-15.703 30.721-33.182 30.721-0.035 0-0.069 0-0.104 0h-235.060c-0.029 0-0.064 0-0.099 0-17.48 0-31.812-13.475-33.175-30.604l-0.007-0.116-12.8-173.009c-0.358-5.632-0.435-11.187-0.256-16.743 2.82-50.357 28.059-94.294 65.816-122.316l0.439-0.311 17.204-13.21c4.706-3.678 7.703-9.356 7.703-15.733 0-1.547-0.176-3.053-0.51-4.498l0.026 0.134c-24.116-108.342-42.574-250.323 6.375-311.381 15.929-19.428 39.93-31.726 66.805-31.726s50.876 12.299 66.684 31.575l0.121 0.152c48.948 61.032 30.49 203.039 6.349 311.406-0.302 1.303-0.475 2.799-0.475 4.335 0 6.365 2.971 12.037 7.601 15.704l17.322 13.242c38.21 28.332 63.454 72.283 66.236 122.229l0.019 0.424c0.064 1.721 0.101 3.741 0.101 5.77 0 3.951-0.139 7.869-0.412 11.751l0.029-0.523zM474.508 501.467l-17.28-13.261c-20.551-16.003-33.644-40.747-33.644-68.55 0-6.644 0.748-13.114 2.164-19.33l-0.111 0.581c27.879-125.443 30.516-225.593 6.682-255.315-3.625-4.177-8.943-6.803-14.874-6.803s-11.248 2.626-14.853 6.779l-0.021 0.024c-23.86 29.722-21.223 129.923 6.656 255.264 1.301 5.63 2.047 12.095 2.047 18.734 0 27.827-13.1 52.594-33.47 68.47l-0.194 0.145-17.229 13.236c-22.873 16.514-38.153 42.324-40.277 71.778l-0.018 0.313c-0.038 1.014-0.060 2.206-0.060 3.402 0 2.253 0.078 4.487 0.231 6.701l-0.017-0.299 10.573 141.93h10.24v-106.319c0-18.38 14.9-33.281 33.281-33.281s33.281 14.9 33.281 33.281v0 106.319h19.687v-106.319c0-18.38 14.9-33.281 33.281-33.281s33.281 14.9 33.281 33.281v0 106.319h10.24l10.547-141.648c0.205-3.405 0.256-6.759 0.179-10.035-2.186-29.769-17.463-55.574-40.038-71.922l-0.283-0.195zM648.746 785.634c-3.969 1.805-8.607 2.857-13.492 2.857-18.377 0-33.275-14.895-33.281-33.27v-388.696c-6.938-85.148-12.237-280.506 83.074-290.746 1.981-0.243 4.276-0.382 6.603-0.384h0.002c0.075 0 0.164-0.001 0.253-0.001 16.096 0 30.582 6.89 40.671 17.881l0.037 0.040c11.751 12.596 42.932 46.081 8.807 234.758-1.015 5.942-1.595 12.785-1.595 19.765 0 23.125 6.368 44.763 17.446 63.255l-0.311-0.56c45.108 78.952 56.731 153.271 34.561 220.908-26.656 68.422-77.17 122.64-141.088 153.459l-1.687 0.733zM699.307 443.584c-16.283-27.437-25.906-60.484-25.906-95.779 0-11.139 0.958-22.053 2.797-32.666l-0.162 1.133c17.92-99.177 16.18-149.738 11.187-169.348-16.077 23.194-27.213 113.385-18.816 215.532 0 0.896 0 1.818 0 2.714v329.122c27.057-21.55 47.775-49.972 59.622-82.646l0.411-1.298c15.949-48.872 6.119-104.937-29.134-166.66zM512.013 960c-282.777 0-512.013-229.236-512.013-512.013s229.236-512.013 512.013-512.013c282.777 0 512.013 229.236 512.013 512.013v0c-0.335 282.642-229.371 511.678-511.98 512.013h-0.032zM512.013 2.536c-246.016 0-445.451 199.435-445.451 445.451s199.435 445.451 445.451 445.451c246.016 0 445.451-199.435 445.451-445.451v0c-0.291-245.898-199.552-445.16-445.423-445.451h-0.028z" />
<glyph unicode="&#xe943;" glyph-name="label" d="M442.251-63.974c-0.055 0-0.12 0-0.186 0-20.001 0-38.104 8.122-51.193 21.247l-369.496 369.547c-13.159 13.15-21.299 31.321-21.299 51.393s8.14 38.243 21.298 51.393l507.508 507.482c13.050 13.127 31.108 21.263 51.066 21.3h0.007l371.465 1.613c0.008 0 0.017 0 0.026 0 40.14 0 72.68-32.54 72.68-72.68 0-0.108 0-0.216-0.001-0.324v0.017l-1.587-371.209c-0.044-19.956-8.179-38.004-21.296-51.044l-507.536-507.536c-13.085-13.097-31.169-21.198-51.144-21.198-0.11 0-0.22 0-0.33 0.001h0.017zM437.925 4.328c0.979-1.341 2.546-2.203 4.314-2.203s3.335 0.862 4.303 2.188l0.011 0.015 507.533 507.533c1.092 1.107 1.773 2.623 1.792 4.297v0.004l1.613 371.209c-0.003 1.689-0.687 3.218-1.792 4.327v0c-1.096 1.107-2.615 1.792-4.295 1.792-0.020 0-0.040 0-0.060 0h0.003l-371.209-1.587c-1.68-0.035-3.193-0.722-4.301-1.818l-507.506-507.506c-1.106-1.103-1.79-2.629-1.79-4.314s0.684-3.211 1.79-4.314v0zM812.027 646.008c-56.291 0.032-101.911 45.672-101.911 101.967 0 56.315 45.652 101.967 101.967 101.967s101.967-45.652 101.967-101.967c0-28.178-11.43-53.686-29.905-72.142l-0.001-0.001c-18.421-18.427-43.873-29.825-71.987-29.825-0.046 0-0.091 0-0.137 0h0.007zM860.668 699.36v0zM812.027 783.432c-19.584-0.016-35.454-15.896-35.454-35.482 0-9.785 3.961-18.645 10.366-25.064l-0.001 0.001c6.424-6.437 15.305-10.419 25.117-10.419 19.596 0 35.482 15.886 35.482 35.482s-15.886 35.482-35.482 35.482c-0.010 0-0.020 0-0.030 0h0.002z" />
<glyph unicode="&#xe944;" glyph-name="last" horiz-adv-x="845" d="M332.774 960c0.005 0 0.011 0 0.017 0 10.6 0 20.196-4.295 27.144-11.239l473.6-473.6c6.947-6.949 11.243-16.547 11.243-27.149s-4.296-20.2-11.243-27.149l-473.6-473.6c-6.898-6.669-16.308-10.779-26.677-10.779-21.208 0-38.4 17.192-38.4 38.4 0 10.369 4.11 19.779 10.79 26.688l-0.010-0.011 446.438 446.438-446.438 446.464c-6.939 6.947-11.23 16.541-11.23 27.136 0 21.196 17.173 38.381 38.364 38.4h0.002zM38.374 960c0.005 0 0.011 0 0.017 0 10.6 0 20.196-4.295 27.144-11.239l473.6-473.6c6.947-6.949 11.243-16.547 11.243-27.149s-4.296-20.2-11.243-27.149l-473.6-473.6c-6.898-6.669-16.308-10.779-26.677-10.779-21.208 0-38.4 17.192-38.4 38.4 0 10.369 4.11 19.779 10.79 26.688l-0.010-0.011 446.438 446.438-446.438 446.464c-6.939 6.947-11.23 16.541-11.23 27.136 0 21.196 17.173 38.381 38.364 38.4h0.002z" />
<glyph unicode="&#xe945;" glyph-name="layout" d="M990.72 917.734h-957.44c-18.38 0-33.28-14.9-33.28-33.28v0-872.96c0-18.38 14.9-33.28 33.28-33.28h957.44c18.38 0 33.28 14.9 33.28 33.28v0 872.96c0 18.38-14.9 33.28-33.28 33.28v0zM957.44 851.174v-195.712h-890.88v195.712zM66.56 588.928h205.952v-536.96c0.216-2.643 0.734-5.089 1.523-7.409l-0.064 0.215h-207.36zM337.587 44.774c0.724 2.104 1.241 4.55 1.452 7.082l0.007 0.111v536.986h618.419v-544.154z" />
<glyph unicode="&#xe946;" glyph-name="letter" d="M1023.078 128.87c0.384 1.291 0.707 2.843 0.907 4.435l0.015 0.148v629.146c-0.223 1.718-0.537 3.236-0.951 4.711l0.055-0.231c-0.226 2.657-0.743 5.11-1.524 7.443l0.065-0.224c-0.996 2.269-2.135 4.221-3.465 6.024l0.060-0.085c-0.834 1.672-1.685 3.089-2.631 4.433l0.071-0.107c-0.256 0.282-0.64 0.384-0.896 0.666-1.651 1.581-3.488 2.994-5.466 4.196l-0.14 0.079c-1.424 1.165-3.015 2.25-4.698 3.191l-0.166 0.085c-3.404 1.063-7.658 2.068-12.003 2.806l-0.618 0.087c-0.384 0-0.666 0.205-1.050 0.205h-957.44c-0.358 0-0.666-0.179-1.024-0.205-2.684-0.243-5.154-0.76-7.51-1.527l0.24 0.068c-2.057-0.376-3.853-0.873-5.583-1.508l0.232 0.075c-1.858-1.019-3.458-2.104-4.946-3.322l0.057 0.045c-2.117-1.289-3.952-2.701-5.62-4.288l0.014 0.013c-0.256-0.282-0.64-0.384-0.896-0.666-0.88-1.24-1.732-2.656-2.474-4.137l-0.086-0.189c-1.266-1.718-2.412-3.669-3.348-5.735l-0.083-0.204c-0.708-2.111-1.217-4.566-1.426-7.105l-0.008-0.114c-0.385-1.264-0.708-2.781-0.907-4.336l-0.015-0.144v-629.12c0.214-1.739 0.537-3.291 0.975-4.795l-0.053 0.213c0.231-2.586 0.738-4.968 1.498-7.235l-0.064 0.221c0.989-2.299 2.129-4.277 3.465-6.102l-0.060 0.086c0.766-1.635 1.56-3.020 2.451-4.333l-0.070 0.109c0.256-0.282 0.64-0.384 0.922-0.666 2.417-2.497 5.221-4.599 8.32-6.213l0.179-0.085c0.87-0.486 1.562-1.28 2.56-1.664 3.902-1.765 8.458-2.8 13.255-2.816h957.446c4.803 0.021 9.358 1.055 13.471 2.9l-0.211-0.084c0.896 0.384 1.587 1.178 2.56 1.664 3.283 1.71 6.094 3.81 8.519 6.291l0.006 0.006c0.256 0.282 0.64 0.384 0.896 0.666 0.821 1.204 1.614 2.589 2.3 4.035l0.081 0.189c1.284 1.74 2.432 3.718 3.353 5.818l0.078 0.198c0.665 2.035 1.155 4.41 1.373 6.863l0.009 0.125zM66.56 689.126l276.301-242.458-276.301-240.205zM512 386.842l-390.323 342.477h780.672zM393.37 402.381l96.691-84.838c5.827-5.134 13.524-8.267 21.952-8.267s16.125 3.133 21.989 8.298l-0.037-0.032 96.666 84.838 271.104-235.674h-779.443zM681.139 446.669l276.326 242.458v-482.662z" />
<glyph unicode="&#xe947;" glyph-name="list" d="M212.275 752.768c0-54.037-43.806-97.843-97.843-97.843s-97.843 43.806-97.843 97.843c0 54.037 43.806 97.843 97.843 97.843s97.843-43.806 97.843-97.843zM212.275 448c0-54.037-43.806-97.843-97.843-97.843s-97.843 43.806-97.843 97.843c0 54.037 43.806 97.843 97.843 97.843s97.843-43.806 97.843-97.843zM212.275 143.232c0-54.037-43.806-97.843-97.843-97.843s-97.843 43.806-97.843 97.843c0 54.037 43.806 97.843 97.843 97.843s97.843-43.806 97.843-97.843zM974.106 719.488h-607.616c-18.38 0-33.28 14.9-33.28 33.28s14.9 33.28 33.28 33.28v0h607.616c18.38 0 33.28-14.9 33.28-33.28s-14.9-33.28-33.28-33.28v0zM974.106 414.746h-607.616c-18.38 0-33.28 14.9-33.28 33.28s14.9 33.28 33.28 33.28v0h607.616c18.38 0 33.28-14.9 33.28-33.28s-14.9-33.28-33.28-33.28v0zM974.106 109.978h-607.616c-18.38 0-33.28 14.9-33.28 33.28s14.9 33.28 33.28 33.28v0h607.616c18.38 0 33.28-14.9 33.28-33.28s-14.9-33.28-33.28-33.28v0z" />
<glyph unicode="&#xe948;" glyph-name="location-search" d="M484.177 86.878c-6.219-5.869-12.213-11.489-17.957-16.734-17.008-15.56-31.719-28.247-43.058-37.713-65.311 66.91-278.253 302.729-283.323 535.502l1.648 32.718c8.588 164.371 143.958 294.398 309.698 294.398 171.261 0 310.095-138.834 310.095-310.095 0-5.521-0.144-11.009-0.429-16.46l0.032 0.762-1.573-31.669c-2.112-16.557-4.738-30.777-8.064-44.725l0.572 2.841c-0.436-1.996-0.686-4.29-0.686-6.641 0-17.932 14.537-32.468 32.468-32.468 15.146 0 27.87 10.371 31.458 24.399l0.049 0.225c3.194 13.044 6.216 29.697 8.367 46.622l0.249 2.405 1.923 35.715c0.306 5.669 0.481 12.305 0.481 18.981 0 207.115-167.9 375.015-375.015 375.015-200.438 0-364.149-157.249-374.496-355.111l-0.038-0.922-1.673-32.693v-3.646c5.919-273.458 261.769-540.997 313.019-591.922 8.742-8.682 20.788-14.048 34.086-14.048 11.603 0 22.252 4.085 30.587 10.895l-0.087-0.069c12.488 10.215 32.793 27.148 57.444 49.751 5.994 5.495 12.288 11.339 18.782 17.483 6.253 5.931 10.144 14.3 10.144 23.577 0 17.934-14.538 32.472-32.472 32.472-8.656 0-16.522-3.387-22.343-8.908l0.014 0.014zM241.864 606.196c-0.172-3.179-0.27-6.9-0.27-10.644 0-116.046 94.074-210.12 210.12-210.12s210.12 94.074 210.12 210.12c0 112.297-88.093 204.018-198.943 209.828l-0.517 0.022c-3.105 0.164-6.741 0.257-10.399 0.257-112.352 0-204.136-88.065-210.088-198.933l-0.023-0.529zM596.717 588.213c-4.024-76.955-67.401-137.829-144.997-137.829-80.182 0-145.183 65.001-145.183 145.183s65.001 145.183 145.183 145.183c2.588 0 5.159-0.068 7.714-0.201l-0.357 0.015c77.002-4.082 137.893-67.513 137.893-145.166 0-2.527-0.064-5.039-0.192-7.535l0.014 0.35zM945.077-1.061l-84.667 93.708c31.554 34.997 50.857 81.576 50.857 132.663 0 109.604-88.852 198.456-198.456 198.456s-198.456-88.852-198.456-198.456c0-109.604 88.852-198.456 198.456-198.456 35.552 0 68.921 9.349 97.783 25.722l-0.984-0.514 87.415-96.656c5.924-6.205 14.261-10.062 23.498-10.062 17.932 0 32.468 14.537 32.468 32.468 0 8.088-2.957 15.485-7.849 21.169l0.036-0.043zM581.632 230.587c3.659 70.061 61.358 125.484 132.002 125.484 72.996 0 132.171-59.175 132.171-132.171s-59.175-132.171-132.171-132.171c-2.348 0-4.681 0.061-6.998 0.182l0.324-0.013c-70.083 3.762-125.487 61.507-125.487 132.192 0 2.286 0.058 4.558 0.172 6.815l-0.013-0.317z" />
<glyph unicode="&#xe949;" glyph-name="location-solid" horiz-adv-x="769" d="M384.384 960c-212.22-0.262-384.18-172.259-384.384-384.467v-37.216c20.224-279.731 296.064-540.16 351.155-589.645 8.738-7.871 20.363-12.686 33.114-12.686s24.376 4.815 33.158 12.725l-0.045-0.039c55.066 49.382 330.906 309.888 351.181 590.234v36.685c-0.247 212.123-172.074 384.031-384.143 384.41h-0.037zM533.222 586.496c0-82.187-66.626-148.813-148.813-148.813s-148.813 66.626-148.813 148.813c0 82.178 66.611 148.798 148.786 148.813h0.002c82.151-0.102 148.722-66.664 148.838-148.802v-0.011z" />
<glyph unicode="&#xe94a;" glyph-name="location" horiz-adv-x="769" d="M384.41-64c-0.002 0-0.005 0-0.008 0-12.749 0-24.375 4.809-33.163 12.712l0.045-0.040c-55.091 49.408-330.931 309.914-351.155 589.645v37.197c-0.008 0.932-0.013 2.034-0.013 3.137 0 212.304 172.106 384.41 384.41 384.41s384.41-172.106 384.41-384.41c0-1.103-0.005-2.205-0.014-3.305l0.001 0.168v-36.685c-20.275-280.346-296.115-540.851-351.181-590.234-8.696-7.816-20.258-12.597-32.936-12.597-0.139 0-0.278 0.001-0.416 0.002h0.021zM373.069-1.766v0zM384.384 893.44c-175.412-0.204-317.562-142.318-317.824-317.697v-33.305c17.254-238.259 247.475-468.48 317.824-533.632 70.4 65.178 300.57 295.475 317.875 534.554v32.358c-0.262 175.422-142.442 317.547-317.859 317.722h-0.016zM384.384 371.2c-118.947 0-215.373 96.426-215.373 215.373s96.426 215.373 215.373 215.373c118.947 0 215.373-96.426 215.373-215.373 0-0.009 0-0.018 0-0.027v0.001c-0.102-118.911-96.464-215.282-215.362-215.398h-0.011zM384.384 735.36c-82.176-0.015-148.787-66.635-148.787-148.813 0-82.187 66.626-148.813 148.813-148.813s148.813 66.626 148.813 148.813v0c-0.116 82.139-66.693 148.689-148.831 148.762h-0.007z" />
<glyph unicode="&#xe94b;" glyph-name="lock" horiz-adv-x="803" d="M701.158 556.646h-9.83v113.434c0 160.118-129.802 289.92-289.92 289.92s-289.92-129.802-289.92-289.92v0-113.434h-9.83c-56.111-0.058-101.585-45.522-101.658-101.625v-417.287c0.073-56.115 45.543-101.585 101.651-101.658h599.508c56.12 0.058 101.599 45.537 101.658 101.652v417.286c-0.073 56.109-45.546 101.574-101.652 101.632h-0.006zM178.048 670.080c0 123.365 100.007 223.373 223.373 223.373s223.373-100.007 223.373-223.373v0-113.434h-446.746zM736.128 37.76c-0.015-19.378-15.72-35.083-35.096-35.098h-599.502c-19.378 0.015-35.083 15.72-35.098 35.096v417.281c0.015 19.378 15.72 35.083 35.096 35.098h599.502c19.378-0.015 35.083-15.72 35.098-35.096v-0.001zM479.488 339.968c-7.036 37.22-39.299 64.991-78.048 64.991-43.829 0-79.36-35.531-79.36-79.36 0-27.889 14.386-52.418 36.141-66.571l0.307-0.187c2.512-1.568 4.159-4.318 4.159-7.452 0-0.161-0.004-0.322-0.013-0.481l0.001 0.022-25.472-151.040c-0.017-0.23-0.026-0.498-0.026-0.768 0-6.277 5.089-11.366 11.366-11.366 0 0 0 0 0 0h100.582c6.291 0.001 11.391 5.101 11.391 11.392 0 0.261-0.009 0.52-0.026 0.777l0.002-0.035-20.352 151.040c-0.007 0.129-0.011 0.279-0.011 0.431 0 3.142 1.645 5.899 4.121 7.458l0.037 0.021c22.095 14.335 36.505 38.882 36.505 66.794 0 5.067-0.475 10.023-1.383 14.826l0.078-0.494z" />
<glyph unicode="&#xe94c;" glyph-name="login" d="M990.745 960h-622.249c-18.38 0-33.281-14.9-33.281-33.281v0-240.646c0-18.381 14.9-33.281 33.281-33.281s33.281 14.9 33.281 33.281v207.365h555.739v-890.902h-555.739v207.365c0 18.381-14.9 33.281-33.281 33.281s-33.281-14.9-33.281-33.281v0-240.646c0-18.38 14.9-33.281 33.281-33.281v0h622.249c18.38 0 33.281 14.9 33.281 33.281v0 957.464c0 18.38-14.9 33.281-33.281 33.281v0zM542.503 268.143c-5.574-5.936-8.999-13.948-8.999-22.76 0-18.38 14.9-33.281 33.281-33.281 8.805 0 16.812 3.42 22.765 9.003l-0.018-0.017 203.371 203.371c6.027 6.023 9.754 14.346 9.754 23.54s-3.728 17.516-9.754 23.54l-203.372 203.346c-5.934 5.567-13.941 8.987-22.747 8.987-18.38 0-33.281-14.9-33.281-33.281 0-8.812 3.425-16.824 9.016-22.778l-0.016 0.018 146.538-146.538h-655.76c-18.38 0-33.281-14.9-33.281-33.281s14.9-33.281 33.281-33.281h655.76z" />
<glyph unicode="&#xe94d;" glyph-name="logout" d="M623.632 243.31c-18.38 0-33.281-14.9-33.281-33.281v0-207.365h-523.815v890.902h523.815v-207.365c0-18.381 14.9-33.281 33.281-33.281s33.281 14.9 33.281 33.281v0 240.646c0 18.38-14.9 33.281-33.281 33.281v0h-590.351c-18.38 0-33.281-14.9-33.281-33.281v0-957.464c0-18.38 14.9-33.281 33.281-33.281v0h590.351c18.38 0 33.281 14.9 33.281 33.281v0 240.646c0 18.38-14.9 33.281-33.281 33.281v0zM1014.272 471.54l-203.371 203.346c-6.071 6.346-14.606 10.29-24.063 10.29-18.38 0-33.281-14.9-33.281-33.281 0-9.457 3.944-17.993 10.278-24.052l146.576-146.55h-671.786c-18.38 0-33.281-14.9-33.281-33.281s14.9-33.281 33.281-33.281h671.786l-146.564-146.589c-5.705-5.964-9.217-14.067-9.217-22.991 0-18.38 14.9-33.281 33.281-33.281 8.924 0 17.027 3.512 23.003 9.229l203.359 203.385c6.019 6.022 9.742 14.34 9.742 23.527s-3.723 17.505-9.742 23.527v0z" />
<glyph unicode="&#xe94e;" glyph-name="mail" horiz-adv-x="1001" d="M1000.423-35.022c0.352 1.2 0.657 2.656 0.854 4.146l0.017 0.154v621.066c-0.105 1.335-0.286 2.551-0.545 3.738l0.033-0.18c-0.092 1.206-0.246 2.301-0.464 3.372l0.029-0.172c-0.772 3.859-2.103 7.289-3.925 10.397l0.085-0.157-0.128 0.307c-2.163 3.341-4.799 6.165-7.853 8.465l-0.083 0.060c-0.41 0.333-0.589 0.819-1.024 1.126l-158.281 113.559v129.686c0 18.38-14.9 33.279-33.279 33.279v0h-192.738l-83.019 59.775c-5.393 3.925-12.149 6.279-19.456 6.279s-14.062-2.354-19.551-6.346l0.096 0.066-83.019-59.775h-192.738c-18.38 0-33.279-14.9-33.279-33.279v-129.354l-158.306-113.917c-0.435-0.307-0.64-0.794-1.050-1.126-3.098-2.364-5.707-5.177-7.781-8.37l-0.078-0.128c0-0.205-0.154-0.435-0.282-0.64-1.688-2.885-2.969-6.242-3.654-9.81l-0.032-0.199c-0.2-0.929-0.363-2.058-0.455-3.207l-0.006-0.095c-0.213-0.96-0.394-2.14-0.503-3.34l-0.009-0.116v-621.066c0.23-1.668 0.535-3.124 0.928-4.542l-0.057 0.242c0.242-2.502 0.731-4.796 1.447-6.986l-0.065 0.228c0.925-2.314 1.991-4.303 3.246-6.153l-0.071 0.112c0.665-1.54 1.35-2.834 2.122-4.069l-0.074 0.127c0.512-0.614 1.178-1.075 1.715-1.664s0.998-0.973 1.51-1.459c2.634-2.536 5.707-4.642 9.088-6.188l0.204-0.084c0.384-0.179 0.794-0.256 1.178-0.41 3.562-1.528 7.701-2.46 12.045-2.559l0.038-0.001h934.786c4.391 0.102 8.538 1.034 12.328 2.643l-0.219-0.083c0.384 0.154 0.768 0.23 1.152 0.41 3.588 1.623 6.661 3.729 9.302 6.281l-0.009-0.009c0.538 0.486 1.024 0.947 1.51 1.459s1.203 1.050 1.715 1.664c0.687 1.096 1.38 2.39 1.987 3.73l0.086 0.212c1.171 1.736 2.236 3.724 3.094 5.819l0.080 0.222c0.649 1.996 1.129 4.327 1.347 6.734l0.009 0.127zM66.558 523.966l310.392-231.802-310.392-252.87zM431.938 251.077l45.644-34.073c5.468-4.097 12.366-6.56 19.84-6.56s14.371 2.463 19.926 6.622l-0.087-0.062 49.381 36.402 307.832-250.874h-747.655zM621.988 294.058l191.995 141.488c2.208 1.293 4.12 2.716 5.859 4.321l-0.023-0.021 114.89 84.657v-485.21zM911.414 589.987l-82.276-60.619v119.651zM762.656 827.37v-347.025l-264.979-195.246-258.912 193.378v348.894zM172.207 528.19l-82.558 61.669 82.558 59.391zM500.647 409.307c94.301 0 170.748 76.446 170.748 170.748s-76.446 170.748-170.748 170.748c-94.301 0-170.748-76.446-170.748-170.748v0c0.102-94.26 76.487-170.646 170.738-170.748h0.010zM500.647 475.865c-50.951 0.070-93.326 36.703-102.298 85.064l-0.099 0.643c1.465-3.153 3.291-5.864 5.474-8.241l-0.021 0.023 46.77-46.77c6.022-6.019 14.339-9.741 23.526-9.741s17.504 3.722 23.526 9.741l99.837 99.837c0.808 1.038 1.603 2.209 2.322 3.429l0.084 0.155c2.972-8.945 4.758-19.25 4.914-29.951l0.001-0.077c-0.116-57.426-46.616-103.953-104.021-104.113h-0.015zM500.647 684.244c24.395-0.095 46.774-8.652 64.372-22.885l-0.195 0.152c-5.618-1.467-10.462-4.236-14.374-7.973l-76.376-76.351-23.244 23.219c-6.022 6.019-14.339 9.741-23.526 9.741s-17.504-3.722-23.526-9.741v0c-2.52-2.65-4.609-5.74-6.137-9.137l-0.083-0.207c5.643 52.472 49.608 92.993 103.072 93.156h0.017z" />
</font>
</defs>
</svg>
